<?xml version="1.0" encoding="utf-8"?>
<!-- Generator: Adobe Illustrator 19.0.0, SVG Export Plug-In . SVG Version: 6.00 Build 0)  -->
<svg version="1.1" id="图层_1" xmlns="http://www.w3.org/2000/svg" xmlns:xlink="http://www.w3.org/1999/xlink" x="0px" y="0px"
	 viewBox="0 0 850.4 850.4" style="enable-background:new 0 0 850.4 850.4;" xml:space="preserve">
<style type="text/css">
	.st0{fill:#FFFFFF;}
	.st1{fill:#3C4C55;}
	.st2{fill:#199AE2;}
</style>
<path class="st0" d="M399.7,168.3c-12.4,27-19.3,57-19.3,88.6c0,117.3,95.3,212.6,212.6,212.6c31.6,0,61.6-6.9,88.6-19.3v239.7
	c0,25-20.3,45.4-45.4,45.4H160c-25,0-45.4-20.3-45.4-45.4V213.7c0-25,20.3-45.4,45.4-45.4H399.7L399.7,168.3z"/>
<path class="st1" d="M752.4,186.4c0-35.2-28.6-63.8-63.8-63.8H178.4c-35.2,0-63.8,28.6-63.8,63.8v510.2c0,35.2,28.6,63.8,63.8,63.8
	h510.2c35.2,0,63.8-28.6,63.8-63.8V186.4L752.4,186.4z"/>
<path class="st0" d="M717,197.8c0-21.9-17.8-39.7-39.7-39.7H189.7c-21.9,0-39.7,17.8-39.7,39.7v487.6c0,21.9,17.8,39.7,39.7,39.7
	h487.6c21.9,0,39.7-17.8,39.7-39.7V197.8L717,197.8z"/>
<g>
	<path class="st2" d="M203.2,595.1l76.8,76.8V518.3L203.2,595.1z"/>
	<path class="st2" d="M402.8,441.6h61.4H402.8z M402.8,564.4c-33.4,44.9-61.6,61-121.6,61.4H280v-61.4c58.1,0,79.4-22.6,92.1-76.8
		C376,517.1,388.2,539.9,402.8,564.4L402.8,564.4z"/>
	<path class="st1" d="M585.9,625.8c-101.1-0.6-183.1-83-183.1-184.3h61.4c0,67.8,55,122.8,122.8,122.8v61.4H585.9z"/>
	<path class="st1" d="M281.2,257.3c101.1,0.6,183.1,83,183.1,184.3h-61.4c0-67.8-55-122.8-122.8-122.8v-61.4H281.2L281.2,257.3z"/>
	<path class="st1" d="M203.2,288l76.8-76.8v153.5L203.2,288z"/>
	<path class="st1" d="M663.8,595.1l-76.8,76.8V518.3L663.8,595.1z"/>
	<path class="st2" d="M663.8,288l-76.8-76.8v153.5L663.8,288z"/>
	<path class="st2" d="M464.1,441.6h-61.4H464.1z M464.1,318.7c33.4-44.9,61.6-61,121.6-61.4h1.2v61.4c-58.1,0-79.4,22.6-92.1,76.8
		C490.9,366,478.6,343.2,464.1,318.7L464.1,318.7z"/>
</g>
</svg>
