<?xml version="1.0" encoding="UTF-8" standalone="no"?><!DOCTYPE svg PUBLIC "-//W3C//DTD SVG 1.1//EN" "http://www.w3.org/Graphics/SVG/1.1/DTD/svg11.dtd"><svg width="100%" height="100%" viewBox="0 0 48 48" version="1.1" xmlns="http://www.w3.org/2000/svg" xmlns:xlink="http://www.w3.org/1999/xlink" xml:space="preserve" style="fill-rule:evenodd;clip-rule:evenodd;stroke-linejoin:round;stroke-miterlimit:1.41421;"><path d="M19.366,16.927c1.793,-2.395 4.536,-3.927 7.609,-3.927c5.395,0 9.775,4.724 9.775,10.542c0,0.178 -0.004,0.356 -0.012,0.532c2.417,0.431 4.262,2.698 4.262,5.426c0,3.036 -2.285,5.5 -5.1,5.5c0,0 -23.8,0 -23.8,0c-2.815,0 -5.1,-2.464 -5.1,-5.5c0,-2.73 1.849,-4.999 4.269,-5.427c-0.013,-0.175 -0.019,-0.353 -0.019,-0.531c0,-3.795 2.857,-6.875 6.375,-6.875c0.604,0 1.188,0.09 1.741,0.26Z" style="fill:#fff;"/><path d="M27.142,10.001l0.167,0.003l0.167,0.006l0.166,0.008l0.165,0.01l0.165,0.013l0.165,0.014l0.164,0.017l0.163,0.019l0.163,0.022l0.162,0.023l0.162,0.025l0.161,0.028l0.16,0.03l0.16,0.032l0.159,0.034l0.158,0.036l0.158,0.038l0.157,0.04l0.156,0.042l0.155,0.045l0.154,0.046l0.154,0.048l0.152,0.05l0.152,0.052l0.151,0.054l0.15,0.056l0.149,0.058l0.148,0.06l0.148,0.061l0.146,0.064l0.145,0.065l0.144,0.067l0.144,0.069l0.142,0.07l0.141,0.072l0.141,0.074l0.139,0.076l0.138,0.078l0.137,0.079l0.136,0.081l0.135,0.082l0.133,0.084l0.133,0.086l0.131,0.087l0.131,0.089l0.129,0.091l0.128,0.092l0.126,0.094l0.126,0.095l0.124,0.096l0.124,0.098l0.122,0.1l0.12,0.101l0.12,0.103l0.118,0.104l0.117,0.105l0.116,0.107l0.114,0.108l0.113,0.11l0.112,0.11l0.11,0.113l0.11,0.113l0.107,0.115l0.107,0.116l0.105,0.118l0.104,0.119l0.102,0.12l0.101,0.121l0.1,0.123l0.098,0.123l0.097,0.125l0.095,0.127l0.094,0.127l0.093,0.128l0.091,0.13l0.09,0.131l0.088,0.132l0.087,0.133l0.085,0.134l0.083,0.136l0.083,0.136l0.08,0.138l0.079,0.138l0.078,0.14l0.076,0.14l0.075,0.142l0.073,0.142l0.071,0.144l0.07,0.145l0.068,0.145l0.066,0.147l0.065,0.147l0.063,0.148l0.062,0.15l0.06,0.15l0.058,0.151l0.057,0.152l0.055,0.153l0.053,0.153l0.051,0.155l0.05,0.155l0.048,0.156l0.047,0.157l0.044,0.158l0.043,0.158l0.041,0.16l0.039,0.16l0.037,0.16l0.036,0.162l0.034,0.162l0.032,0.162l0.03,0.164l0.028,0.164l0.026,0.165l0.025,0.165l0.022,0.166l0.021,0.166l0.014,0.124l0.019,0.011l0.157,0.089l0.155,0.093l0.153,0.097l0.15,0.099l0.147,0.103l0.146,0.106l0.142,0.109l0.14,0.111l0.137,0.115l0.135,0.118l0.132,0.12l0.129,0.123l0.127,0.126l0.124,0.129l0.121,0.131l0.118,0.134l0.115,0.136l0.113,0.138l0.109,0.141l0.107,0.144l0.104,0.145l0.1,0.148l0.098,0.15l0.094,0.152l0.092,0.155l0.088,0.156l0.085,0.159l0.082,0.16l0.079,0.163l0.075,0.164l0.072,0.166l0.069,0.168l0.065,0.17l0.062,0.171l0.058,0.173l0.055,0.174l0.052,0.177l0.048,0.177l0.044,0.179l0.04,0.181l0.037,0.181l0.034,0.183l0.029,0.185l0.026,0.185l0.021,0.187l0.018,0.187l0.014,0.189l0.01,0.189l0.006,0.19l0.002,0.184l-0.001,0.113l-0.001,0.106l-0.004,0.106l-0.004,0.106l-0.005,0.105l-0.007,0.105l-0.008,0.105l-0.01,0.105l-0.01,0.104l-0.012,0.104l-0.012,0.103l-0.014,0.103l-0.016,0.103l-0.016,0.103l-0.018,0.102l-0.018,0.102l-0.02,0.101l-0.021,0.101l-0.022,0.101l-0.024,0.1l-0.024,0.099l-0.026,0.1l-0.026,0.099l-0.028,0.098l-0.029,0.098l-0.03,0.097l-0.031,0.097l-0.032,0.096l-0.033,0.096l-0.035,0.096l-0.035,0.095l-0.036,0.094l-0.038,0.094l-0.038,0.093l-0.04,0.093l-0.04,0.092l-0.042,0.092l-0.043,0.091l-0.043,0.09l-0.045,0.09l-0.046,0.089l-0.046,0.089l-0.048,0.088l-0.048,0.087l-0.05,0.087l-0.05,0.086l-0.052,0.086l-0.052,0.084l-0.054,0.084l-0.054,0.084l-0.055,0.083l-0.057,0.082l-0.057,0.081l-0.058,0.081l-0.059,0.08l-0.06,0.079l-0.061,0.079l-0.061,0.077l-0.063,0.077l-0.064,0.077l-0.064,0.075l-0.065,0.075l-0.067,0.074l-0.067,0.073l-0.068,0.073l-0.068,0.071l-0.07,0.071l-0.07,0.07l-0.072,0.069l-0.072,0.068l-0.073,0.068l-0.074,0.066l-0.075,0.066l-0.075,0.065l-0.077,0.064l-0.077,0.063l-0.078,0.062l-0.078,0.061l-0.08,0.06l-0.08,0.06l-0.082,0.058l-0.081,0.057l-0.083,0.057l-0.084,0.055l-0.084,0.055l-0.085,0.053l-0.085,0.053l-0.087,0.051l-0.087,0.05l-0.088,0.05l-0.088,0.048l-0.09,0.047l-0.09,0.046l-0.09,0.045l-0.092,0.044l-0.092,0.043l-0.093,0.041l-0.093,0.041l-0.094,0.039l-0.095,0.038l-0.095,0.037l-0.096,0.036l-0.096,0.034l-0.097,0.034l-0.098,0.032l-0.098,0.031l-0.099,0.029l-0.099,0.028l-0.1,0.027l-0.1,0.026l-0.101,0.025l-0.102,0.023l-0.101,0.021l-0.103,0.021l-0.102,0.019l-0.103,0.018l-0.104,0.016l-0.104,0.015l-0.104,0.014l-0.105,0.012l-0.105,0.011l-0.105,0.009l-0.106,0.008l-0.106,0.006l-0.106,0.006l-0.106,0.003l-0.107,0.002l-0.097,0.001l-23.82,0l-0.097,-0.001l-0.107,-0.002l-0.106,-0.003l-0.106,-0.006l-0.106,-0.006l-0.106,-0.008l-0.105,-0.009l-0.105,-0.011l-0.105,-0.012l-0.104,-0.014l-0.104,-0.015l-0.104,-0.016l-0.103,-0.018l-0.102,-0.019l-0.103,-0.021l-0.101,-0.021l-0.102,-0.023l-0.101,-0.025l-0.1,-0.026l-0.1,-0.027l-0.099,-0.028l-0.099,-0.029l-0.098,-0.031l-0.098,-0.032l-0.097,-0.034l-0.096,-0.034l-0.096,-0.036l-0.095,-0.037l-0.095,-0.038l-0.094,-0.039l-0.093,-0.041l-0.093,-0.041l-0.092,-0.043l-0.092,-0.044l-0.09,-0.045l-0.09,-0.046l-0.09,-0.047l-0.088,-0.048l-0.088,-0.05l-0.087,-0.05l-0.087,-0.051l-0.085,-0.053l-0.085,-0.053l-0.084,-0.055l-0.084,-0.055l-0.083,-0.057l-0.081,-0.057l-0.082,-0.058l-0.08,-0.06l-0.08,-0.06l-0.078,-0.061l-0.078,-0.062l-0.077,-0.063l-0.077,-0.064l-0.075,-0.065l-0.075,-0.066l-0.074,-0.066l-0.073,-0.068l-0.072,-0.068l-0.071,-0.069l-0.071,-0.07l-0.07,-0.071l-0.068,-0.071l-0.068,-0.073l-0.067,-0.073l-0.067,-0.074l-0.065,-0.075l-0.064,-0.075l-0.064,-0.077l-0.063,-0.077l-0.061,-0.077l-0.061,-0.079l-0.06,-0.079l-0.059,-0.08l-0.058,-0.081l-0.057,-0.081l-0.057,-0.082l-0.055,-0.083l-0.054,-0.084l-0.054,-0.084l-0.052,-0.084l-0.052,-0.086l-0.05,-0.086l-0.05,-0.087l-0.048,-0.087l-0.048,-0.088l-0.046,-0.089l-0.046,-0.089l-0.045,-0.09l-0.043,-0.09l-0.043,-0.091l-0.042,-0.092l-0.04,-0.092l-0.04,-0.093l-0.038,-0.093l-0.038,-0.094l-0.036,-0.094l-0.035,-0.095l-0.035,-0.096l-0.033,-0.096l-0.032,-0.096l-0.031,-0.097l-0.03,-0.097l-0.029,-0.098l-0.028,-0.099l-0.026,-0.098l-0.026,-0.1l-0.024,-0.099l-0.024,-0.1l-0.022,-0.101l-0.021,-0.101l-0.02,-0.101l-0.018,-0.102l-0.018,-0.102l-0.016,-0.103l-0.016,-0.103l-0.014,-0.103l-0.012,-0.103l-0.012,-0.104l-0.01,-0.104l-0.01,-0.105l-0.008,-0.105l-0.007,-0.105l-0.005,-0.105l-0.004,-0.106l-0.004,-0.106l-0.001,-0.106l-0.001,-0.113l0.002,-0.184l0.006,-0.19l0.01,-0.19l0.014,-0.189l0.018,-0.187l0.022,-0.187l0.025,-0.185l0.03,-0.185l0.033,-0.183l0.037,-0.182l0.041,-0.181l0.044,-0.179l0.048,-0.177l0.051,-0.177l0.055,-0.174l0.059,-0.174l0.062,-0.171l0.065,-0.17l0.069,-0.168l0.072,-0.166l0.076,-0.164l0.079,-0.163l0.082,-0.161l0.085,-0.158l0.088,-0.157l0.092,-0.154l0.095,-0.152l0.097,-0.151l0.101,-0.148l0.104,-0.145l0.107,-0.144l0.109,-0.141l0.113,-0.138l0.116,-0.137l0.118,-0.133l0.121,-0.131l0.124,-0.129l0.127,-0.126l0.129,-0.123l0.133,-0.12l0.135,-0.118l0.137,-0.115l0.14,-0.112l0.143,-0.108l0.145,-0.106l0.148,-0.103l0.151,-0.099l0.152,-0.097l0.156,-0.093l0.157,-0.089l0.048,-0.026l0.019,-0.118l0.02,-0.119l0.022,-0.119l0.023,-0.118l0.025,-0.118l0.026,-0.117l0.027,-0.117l0.028,-0.116l0.03,-0.115l0.031,-0.115l0.032,-0.115l0.034,-0.114l0.035,-0.113l0.036,-0.113l0.038,-0.112l0.038,-0.112l0.04,-0.111l0.041,-0.111l0.043,-0.109l0.043,-0.11l0.045,-0.108l0.046,-0.108l0.047,-0.107l0.049,-0.107l0.049,-0.106l0.051,-0.105l0.052,-0.104l0.053,-0.104l0.054,-0.103l0.056,-0.103l0.056,-0.101l0.058,-0.101l0.058,-0.1l0.06,-0.1l0.061,-0.098l0.062,-0.098l0.064,-0.097l0.064,-0.096l0.065,-0.096l0.067,-0.094l0.067,-0.094l0.069,-0.093l0.069,-0.092l0.071,-0.091l0.072,-0.09l0.072,-0.09l0.074,-0.088l0.075,-0.088l0.076,-0.087l0.076,-0.086l0.078,-0.085l0.079,-0.084l0.08,-0.083l0.081,-0.082l0.081,-0.081l0.083,-0.08l0.084,-0.079l0.085,-0.078l0.085,-0.077l0.087,-0.077l0.087,-0.075l0.089,-0.074l0.089,-0.073l0.09,-0.072l0.092,-0.071l0.092,-0.069l0.093,-0.069l0.094,-0.068l0.094,-0.066l0.096,-0.065l0.097,-0.064l0.097,-0.063l0.098,-0.062l0.099,-0.061l0.1,-0.059l0.101,-0.058l0.102,-0.057l0.102,-0.056l0.103,-0.055l0.104,-0.053l0.105,-0.052l0.105,-0.051l0.107,-0.049l0.107,-0.048l0.108,-0.047l0.108,-0.045l0.109,-0.044l0.11,-0.043l0.111,-0.041l0.111,-0.04l0.112,-0.038l0.113,-0.037l0.113,-0.036l0.114,-0.034l0.115,-0.032l0.115,-0.032l0.116,-0.029l0.116,-0.028l0.117,-0.027l0.117,-0.025l0.118,-0.024l0.118,-0.022l0.119,-0.02l0.12,-0.019l0.12,-0.017l0.12,-0.016l0.121,-0.014l0.121,-0.012l0.121,-0.011l0.122,-0.009l0.122,-0.008l0.123,-0.006l0.123,-0.004l0.123,-0.003l0.127,0l0.165,0.001l0.169,0.005l0.168,0.008l0.084,0.005l0.047,-0.047l0.128,-0.125l0.13,-0.124l0.132,-0.122l0.133,-0.119l0.135,-0.118l0.137,-0.117l0.138,-0.114l0.14,-0.112l0.142,-0.111l0.143,-0.108l0.144,-0.107l0.146,-0.104l0.148,-0.102l0.149,-0.101l0.15,-0.098l0.152,-0.096l0.154,-0.095l0.155,-0.091l0.156,-0.09l0.158,-0.088l0.159,-0.085l0.161,-0.083l0.161,-0.081l0.163,-0.079l0.165,-0.076l0.166,-0.074l0.167,-0.072l0.168,-0.069l0.169,-0.066l0.171,-0.065l0.172,-0.061l0.173,-0.06l0.174,-0.057l0.175,-0.054l0.176,-0.051l0.177,-0.05l0.179,-0.046l0.179,-0.044l0.18,-0.041l0.181,-0.038l0.182,-0.036l0.183,-0.033l0.184,-0.03l0.185,-0.028l0.185,-0.024l0.186,-0.022l0.187,-0.019l0.188,-0.016l0.188,-0.013l0.189,-0.011l0.189,-0.007l0.19,-0.005l0.19,-0.001l0.168,0.001Zm-0.311,3l-0.143,0.003l-0.143,0.006l-0.142,0.008l-0.142,0.01l-0.141,0.012l-0.141,0.014l-0.14,0.017l-0.139,0.018l-0.139,0.021l-0.138,0.022l-0.138,0.025l-0.137,0.027l-0.136,0.029l-0.135,0.031l-0.135,0.033l-0.134,0.035l-0.134,0.037l-0.132,0.039l-0.132,0.04l-0.132,0.043l-0.13,0.045l-0.129,0.047l-0.129,0.048l-0.128,0.051l-0.127,0.052l-0.127,0.054l-0.125,0.056l-0.124,0.058l-0.124,0.059l-0.123,0.061l-0.122,0.063l-0.12,0.065l-0.12,0.067l-0.119,0.068l-0.118,0.07l-0.117,0.072l-0.116,0.073l-0.115,0.075l-0.114,0.077l-0.113,0.078l-0.112,0.08l-0.11,0.082l-0.11,0.083l-0.108,0.085l-0.108,0.086l-0.106,0.088l-0.105,0.089l-0.104,0.091l-0.103,0.092l-0.101,0.094l-0.1,0.095l-0.1,0.097l-0.097,0.098l-0.097,0.1l-0.095,0.101l-0.094,0.102l-0.093,0.104l-0.092,0.105l-0.09,0.106l-0.089,0.108l-0.087,0.109l-0.086,0.11l-0.085,0.112l-0.104,-0.031l-0.105,-0.029l-0.105,-0.027l-0.107,-0.025l-0.106,-0.024l-0.108,-0.021l-0.108,-0.019l-0.109,-0.018l-0.109,-0.015l-0.11,-0.014l-0.11,-0.011l-0.111,-0.01l-0.112,-0.007l-0.112,-0.005l-0.112,-0.003l-0.113,-0.001l-0.082,0l-0.082,0.002l-0.082,0.003l-0.082,0.004l-0.081,0.005l-0.081,0.006l-0.081,0.007l-0.08,0.008l-0.081,0.01l-0.079,0.01l-0.08,0.011l-0.079,0.013l-0.079,0.014l-0.079,0.014l-0.078,0.016l-0.078,0.016l-0.078,0.018l-0.077,0.019l-0.077,0.02l-0.076,0.02l-0.077,0.022l-0.075,0.023l-0.076,0.023l-0.075,0.025l-0.074,0.026l-0.075,0.026l-0.074,0.028l-0.073,0.028l-0.073,0.03l-0.073,0.03l-0.072,0.031l-0.071,0.032l-0.072,0.033l-0.071,0.034l-0.07,0.035l-0.07,0.036l-0.069,0.037l-0.069,0.037l-0.069,0.039l-0.068,0.039l-0.067,0.04l-0.067,0.041l-0.067,0.042l-0.066,0.043l-0.065,0.043l-0.065,0.044l-0.064,0.046l-0.064,0.045l-0.064,0.047l-0.062,0.048l-0.063,0.048l-0.061,0.049l-0.061,0.05l-0.061,0.051l-0.06,0.051l-0.059,0.052l-0.059,0.053l-0.058,0.054l-0.058,0.054l-0.056,0.056l-0.057,0.055l-0.055,0.057l-0.056,0.057l-0.054,0.058l-0.054,0.059l-0.053,0.059l-0.052,0.06l-0.052,0.061l-0.051,0.061l-0.051,0.063l-0.049,0.062l-0.049,0.064l-0.049,0.064l-0.048,0.064l-0.047,0.065l-0.046,0.066l-0.045,0.067l-0.045,0.067l-0.044,0.068l-0.044,0.068l-0.042,0.069l-0.042,0.069l-0.041,0.07l-0.041,0.071l-0.039,0.071l-0.039,0.072l-0.038,0.072l-0.037,0.073l-0.037,0.073l-0.035,0.074l-0.035,0.074l-0.034,0.075l-0.033,0.076l-0.032,0.075l-0.032,0.077l-0.031,0.077l-0.03,0.077l-0.029,0.078l-0.028,0.078l-0.027,0.079l-0.026,0.079l-0.026,0.08l-0.024,0.08l-0.024,0.08l-0.023,0.081l-0.022,0.081l-0.021,0.082l-0.02,0.082l-0.019,0.083l-0.019,0.083l-0.017,0.083l-0.016,0.084l-0.016,0.084l-0.014,0.084l-0.014,0.085l-0.012,0.085l-0.012,0.086l-0.011,0.086l-0.009,0.086l-0.009,0.086l-0.008,0.087l-0.006,0.087l-0.006,0.087l-0.005,0.088l-0.003,0.088l-0.003,0.088l-0.001,0.089l-0.001,0.089l0.001,0.133l0.004,0.134l0.006,0.132l0.008,0.132l-0.113,0.021l-0.112,0.024l-0.112,0.027l-0.11,0.029l-0.109,0.032l-0.109,0.035l-0.107,0.037l-0.106,0.039l-0.106,0.042l-0.104,0.044l-0.103,0.047l-0.102,0.049l-0.1,0.051l-0.1,0.054l-0.098,0.056l-0.097,0.058l-0.096,0.06l-0.094,0.062l-0.093,0.065l-0.092,0.067l-0.09,0.068l-0.088,0.071l-0.088,0.073l-0.085,0.074l-0.085,0.077l-0.082,0.079l-0.081,0.08l-0.079,0.082l-0.078,0.084l-0.076,0.086l-0.075,0.088l-0.072,0.089l-0.071,0.091l-0.069,0.093l-0.067,0.094l-0.065,0.096l-0.064,0.098l-0.061,0.099l-0.06,0.1l-0.057,0.102l-0.056,0.103l-0.054,0.105l-0.051,0.106l-0.049,0.108l-0.048,0.109l-0.045,0.11l-0.043,0.111l-0.04,0.112l-0.039,0.114l-0.036,0.115l-0.034,0.116l-0.031,0.117l-0.03,0.118l-0.026,0.119l-0.025,0.12l-0.022,0.121l-0.019,0.122l-0.017,0.123l-0.015,0.124l-0.012,0.125l-0.009,0.125l-0.007,0.126l-0.004,0.127l-0.001,0.128l0,0.071l0.002,0.071l0.002,0.07l0.003,0.071l0.003,0.07l0.005,0.07l0.005,0.07l0.006,0.069l0.007,0.069l0.008,0.069l0.009,0.069l0.009,0.068l0.01,0.068l0.011,0.068l0.011,0.068l0.013,0.067l0.013,0.067l0.014,0.066l0.014,0.067l0.016,0.066l0.016,0.066l0.017,0.065l0.017,0.065l0.018,0.065l0.019,0.064l0.02,0.064l0.021,0.064l0.021,0.063l0.021,0.063l0.023,0.063l0.023,0.062l0.024,0.062l0.025,0.061l0.025,0.062l0.026,0.06l0.026,0.061l0.027,0.059l0.028,0.06l0.029,0.059l0.029,0.059l0.03,0.058l0.03,0.058l0.031,0.057l0.032,0.057l0.032,0.057l0.033,0.056l0.033,0.055l0.034,0.055l0.035,0.055l0.035,0.054l0.036,0.054l0.037,0.053l0.037,0.053l0.037,0.052l0.038,0.051l0.039,0.052l0.039,0.05l0.04,0.051l0.041,0.049l0.041,0.049l0.041,0.049l0.042,0.048l0.042,0.047l0.043,0.047l0.044,0.047l0.044,0.046l0.045,0.045l0.045,0.044l0.045,0.045l0.046,0.043l0.047,0.043l0.047,0.042l0.047,0.042l0.048,0.041l0.049,0.041l0.048,0.04l0.05,0.039l0.049,0.039l0.051,0.038l0.05,0.037l0.051,0.037l0.052,0.036l0.052,0.035l0.052,0.035l0.053,0.034l0.053,0.034l0.054,0.033l0.054,0.032l0.054,0.031l0.055,0.031l0.055,0.03l0.056,0.029l0.056,0.029l0.056,0.028l0.057,0.027l0.057,0.026l0.057,0.026l0.058,0.025l0.058,0.025l0.058,0.023l0.059,0.023l0.059,0.022l0.059,0.021l0.06,0.021l0.06,0.019l0.06,0.019l0.061,0.018l0.061,0.018l0.061,0.016l0.062,0.016l0.062,0.015l0.062,0.014l0.062,0.014l0.063,0.012l0.063,0.012l0.063,0.011l0.063,0.01l0.064,0.009l0.064,0.008l0.064,0.008l0.064,0.006l0.065,0.006l0.065,0.005l0.065,0.004l0.065,0.003l0.065,0.002l0.066,0.002l0.066,0l23.8,0c0,0 0.066,0 0.066,0l0.066,-0.002l0.065,-0.002l0.065,-0.003l0.065,-0.004l0.065,-0.005l0.065,-0.006l0.064,-0.006l0.064,-0.008l0.064,-0.008l0.064,-0.009l0.063,-0.01l0.063,-0.011l0.063,-0.012l0.063,-0.012l0.062,-0.014l0.062,-0.014l0.062,-0.015l0.062,-0.016l0.061,-0.016l0.061,-0.018l0.061,-0.018l0.06,-0.019l0.06,-0.019l0.06,-0.021l0.059,-0.021l0.059,-0.022l0.059,-0.023l0.058,-0.023l0.058,-0.025l0.058,-0.025l0.057,-0.026l0.057,-0.026l0.057,-0.027l0.056,-0.028l0.056,-0.029l0.056,-0.029l0.055,-0.03l0.055,-0.031l0.054,-0.031l0.054,-0.032l0.054,-0.033l0.053,-0.034l0.053,-0.034l0.052,-0.035l0.052,-0.035l0.052,-0.036l0.051,-0.037l0.05,-0.037l0.051,-0.038l0.049,-0.039l0.05,-0.039l0.048,-0.04l0.049,-0.041l0.048,-0.041l0.047,-0.042l0.047,-0.042l0.047,-0.043l0.046,-0.043l0.045,-0.045l0.045,-0.044l0.045,-0.045l0.044,-0.046l0.044,-0.047l0.043,-0.047l0.042,-0.047l0.042,-0.048l0.041,-0.049l0.041,-0.049l0.041,-0.049l0.04,-0.051l0.039,-0.05l0.039,-0.052l0.038,-0.051l0.037,-0.052l0.037,-0.053l0.037,-0.053l0.036,-0.054l0.035,-0.054l0.035,-0.055l0.034,-0.055l0.033,-0.055l0.033,-0.056l0.032,-0.057l0.032,-0.057l0.031,-0.057l0.03,-0.058l0.03,-0.058l0.029,-0.059l0.029,-0.059l0.028,-0.06l0.027,-0.059l0.026,-0.061l0.026,-0.06l0.025,-0.062l0.025,-0.061l0.024,-0.062l0.023,-0.062l0.023,-0.063l0.021,-0.063l0.021,-0.063l0.021,-0.064l0.02,-0.064l0.019,-0.064l0.018,-0.065l0.017,-0.065l0.017,-0.065l0.016,-0.066l0.016,-0.066l0.014,-0.067l0.014,-0.066l0.013,-0.067l0.013,-0.067l0.011,-0.068l0.011,-0.068l0.01,-0.068l0.009,-0.068l0.009,-0.069l0.008,-0.069l0.007,-0.069l0.006,-0.069l0.005,-0.07l0.005,-0.07l0.003,-0.07l0.003,-0.071l0.002,-0.07l0.002,-0.071l0,-0.071l-0.001,-0.128l-0.004,-0.126l-0.007,-0.126l-0.009,-0.126l-0.012,-0.124l-0.015,-0.124l-0.017,-0.123l-0.019,-0.122l-0.022,-0.121l-0.024,-0.12l-0.027,-0.119l-0.029,-0.118l-0.032,-0.117l-0.034,-0.116l-0.036,-0.114l-0.038,-0.114l-0.041,-0.112l-0.043,-0.112l-0.045,-0.11l-0.047,-0.108l-0.049,-0.108l-0.051,-0.106l-0.054,-0.105l-0.055,-0.103l-0.058,-0.102l-0.059,-0.1l-0.062,-0.099l-0.063,-0.097l-0.065,-0.096l-0.067,-0.095l-0.069,-0.092l-0.071,-0.091l-0.072,-0.089l-0.074,-0.088l-0.076,-0.086l-0.078,-0.084l-0.079,-0.082l-0.081,-0.081l-0.083,-0.078l-0.084,-0.077l-0.085,-0.075l-0.087,-0.072l-0.089,-0.071l-0.09,-0.069l-0.091,-0.066l-0.093,-0.065l-0.094,-0.062l-0.096,-0.061l-0.097,-0.058l-0.098,-0.056l-0.099,-0.053l-0.1,-0.052l-0.102,-0.049l-0.103,-0.047l-0.104,-0.044l-0.105,-0.042l-0.106,-0.039l-0.108,-0.037l-0.108,-0.035l-0.109,-0.032l-0.11,-0.029l-0.111,-0.027l-0.112,-0.024l-0.113,-0.022l0.005,-0.132l0.004,-0.133l0.002,-0.134l0.001,-0.133l-0.001,-0.136l-0.002,-0.136l-0.004,-0.136l-0.006,-0.134l-0.007,-0.135l-0.009,-0.134l-0.01,-0.133l-0.012,-0.134l-0.013,-0.132l-0.015,-0.132l-0.016,-0.132l-0.018,-0.131l-0.019,-0.13l-0.021,-0.13l-0.022,-0.13l-0.024,-0.129l-0.025,-0.128l-0.026,-0.128l-0.029,-0.127l-0.029,-0.127l-0.031,-0.126l-0.032,-0.125l-0.034,-0.125l-0.035,-0.124l-0.036,-0.123l-0.038,-0.123l-0.039,-0.122l-0.041,-0.121l-0.041,-0.121l-0.043,-0.12l-0.045,-0.119l-0.046,-0.119l-0.047,-0.118l-0.048,-0.117l-0.05,-0.116l-0.051,-0.116l-0.052,-0.115l-0.053,-0.114l-0.055,-0.113l-0.056,-0.112l-0.057,-0.112l-0.058,-0.111l-0.059,-0.11l-0.061,-0.109l-0.062,-0.108l-0.063,-0.107l-0.064,-0.107l-0.065,-0.106l-0.067,-0.104l-0.067,-0.104l-0.069,-0.103l-0.07,-0.102l-0.071,-0.101l-0.072,-0.1l-0.073,-0.099l-0.074,-0.098l-0.076,-0.097l-0.076,-0.096l-0.077,-0.096l-0.079,-0.094l-0.079,-0.093l-0.08,-0.092l-0.082,-0.091l-0.082,-0.09l-0.084,-0.089l-0.084,-0.088l-0.086,-0.086l-0.086,-0.086l-0.087,-0.085l-0.088,-0.083l-0.09,-0.082l-0.09,-0.082l-0.091,-0.08l-0.092,-0.078l-0.092,-0.078l-0.094,-0.077l-0.095,-0.075l-0.095,-0.074l-0.096,-0.073l-0.097,-0.072l-0.098,-0.07l-0.099,-0.069l-0.1,-0.068l-0.1,-0.067l-0.101,-0.065l-0.102,-0.065l-0.103,-0.062l-0.103,-0.062l-0.105,-0.06l-0.105,-0.059l-0.105,-0.058l-0.107,-0.056l-0.107,-0.055l-0.108,-0.053l-0.108,-0.052l-0.11,-0.051l-0.11,-0.049l-0.11,-0.048l-0.112,-0.047l-0.111,-0.045l-0.113,-0.044l-0.113,-0.042l-0.114,-0.04l-0.115,-0.04l-0.115,-0.038l-0.115,-0.036l-0.116,-0.035l-0.117,-0.033l-0.118,-0.032l-0.118,-0.03l-0.118,-0.029l-0.119,-0.027l-0.12,-0.025l-0.12,-0.024l-0.12,-0.023l-0.121,-0.02l-0.122,-0.02l-0.122,-0.017l-0.122,-0.016l-0.123,-0.015l-0.124,-0.012l-0.123,-0.011l-0.125,-0.01l-0.124,-0.007l-0.125,-0.006l-0.126,-0.005l-0.126,-0.002l-0.126,-0.001l-0.144,0.001Z" style="fill:#3c4c55;"/></svg>