<?xml version="1.0" encoding="UTF-8" standalone="no"?><!DOCTYPE svg PUBLIC "-//W3C//DTD SVG 1.1//EN" "http://www.w3.org/Graphics/SVG/1.1/DTD/svg11.dtd"><svg width="100%" height="100%" viewBox="0 0 48 48" version="1.1" xmlns="http://www.w3.org/2000/svg" xmlns:xlink="http://www.w3.org/1999/xlink" xml:space="preserve" style="fill-rule:evenodd;clip-rule:evenodd;stroke-linejoin:round;stroke-miterlimit:1.41421;"><path d="M4,38.091l0,-0.909l3.502,-5.455l32.996,0l3.502,5.455l0,0.909c0,1.505 -0.313,2.727 -1.818,2.727l-36.364,0c-1.505,0 -1.818,-1.222 -1.818,-2.727Z" style="fill:#fff;"/><path d="M40.664,29.734l0.165,0.021l0.163,0.034l0.16,0.048l0.155,0.061l0.149,0.074l0.143,0.086l0.135,0.097l0.127,0.109l0.117,0.118l0.107,0.128l0.095,0.137l3.503,5.454l0.082,0.141l0.071,0.147l0.059,0.152l0.045,0.156l0.033,0.16l0.02,0.162l0.007,0.163l0,0.916l-0.001,0.161l-0.004,0.169l-0.006,0.17l-0.01,0.172l-0.012,0.173l-0.017,0.169l-0.011,0.094l-0.011,0.088l-0.012,0.089l-0.014,0.089l-0.015,0.09l-0.017,0.09l-0.018,0.091l-0.02,0.092l-0.022,0.092l-0.024,0.092l-0.026,0.093l-0.027,0.094l-0.03,0.094l-0.033,0.094l-0.035,0.095l-0.038,0.096l-0.041,0.096l-0.043,0.096l-0.047,0.096l-0.05,0.096l-0.054,0.096l-0.058,0.096l-0.061,0.096l-0.065,0.095l-0.069,0.094l-0.072,0.092l-0.077,0.092l-0.082,0.09l-0.085,0.087l-0.089,0.086l-0.093,0.082l-0.096,0.08l-0.1,0.077l-0.104,0.073l-0.106,0.069l-0.11,0.065l-0.111,0.062l-0.114,0.057l-0.116,0.052l-0.118,0.049l-0.119,0.044l-0.119,0.039l-0.121,0.036l-0.121,0.031l-0.122,0.026l-0.122,0.023l-0.122,0.019l-0.121,0.015l-0.122,0.012l-0.122,0.008l-0.122,0.005l-0.108,0.001l-36.39,0l-0.108,-0.001l-0.122,-0.005l-0.122,-0.008l-0.122,-0.012l-0.121,-0.015l-0.122,-0.019l-0.122,-0.023l-0.122,-0.026l-0.121,-0.031l-0.121,-0.036l-0.119,-0.039l-0.119,-0.044l-0.118,-0.049l-0.116,-0.052l-0.114,-0.057l-0.111,-0.062l-0.11,-0.065l-0.106,-0.069l-0.104,-0.073l-0.1,-0.077l-0.096,-0.08l-0.093,-0.082l-0.089,-0.086l-0.085,-0.087l-0.082,-0.09l-0.077,-0.092l-0.072,-0.092l-0.069,-0.094l-0.065,-0.095l-0.061,-0.096l-0.058,-0.096l-0.053,-0.096l-0.051,-0.096l-0.047,-0.096l-0.043,-0.096l-0.041,-0.096l-0.038,-0.096l-0.035,-0.095l-0.033,-0.094l-0.03,-0.094l-0.027,-0.094l-0.026,-0.093l-0.024,-0.093l-0.022,-0.091l-0.02,-0.092l-0.018,-0.091l-0.017,-0.09l-0.015,-0.09l-0.014,-0.089l-0.012,-0.089l-0.011,-0.088l-0.011,-0.094l-0.017,-0.169l-0.012,-0.173l-0.01,-0.172l-0.006,-0.17l-0.004,-0.169l-0.001,-0.161l0,-0.916l0.007,-0.163l0.02,-0.162l0.033,-0.16l0.045,-0.156l0.059,-0.152l0.071,-0.147l0.082,-0.141l3.503,-5.454l0.095,-0.137l0.107,-0.128l0.117,-0.118l0.127,-0.109l0.135,-0.097l0.143,-0.086l0.149,-0.074l0.155,-0.061l0.16,-0.048l0.163,-0.034l0.165,-0.021l0.166,-0.007l32.996,0l0.166,0.007Zm-33.162,1.993l-3.502,5.455l0,0.909l0.001,0.14l0.003,0.139l0.005,0.136l0.007,0.134l0.01,0.132l0.013,0.13l0.007,0.063l0.008,0.063l0.009,0.063l0.009,0.061l0.011,0.061l0.011,0.06l0.012,0.059l0.013,0.058l0.013,0.058l0.015,0.057l0.015,0.055l0.016,0.055l0.018,0.054l0.018,0.053l0.019,0.052l0.02,0.051l0.022,0.05l0.022,0.049l0.023,0.048l0.025,0.047l0.025,0.046l0.027,0.044l0.028,0.044l0.029,0.042l0.03,0.041l0.031,0.04l0.033,0.039l0.033,0.037l0.035,0.036l0.037,0.035l0.038,0.034l0.038,0.032l0.041,0.031l0.042,0.029l0.043,0.028l0.044,0.027l0.046,0.025l0.047,0.024l0.049,0.022l0.05,0.02l0.052,0.02l0.054,0.017l0.054,0.016l0.057,0.015l0.058,0.013l0.06,0.011l0.061,0.009l0.063,0.008l0.064,0.006l0.067,0.005l0.067,0.002l0.07,0.001l36.364,0l0.07,-0.001l0.067,-0.002l0.067,-0.005l0.064,-0.006l0.063,-0.008l0.061,-0.009l0.06,-0.011l0.058,-0.013l0.057,-0.015l0.054,-0.016l0.054,-0.017l0.052,-0.02l0.05,-0.02l0.049,-0.022l0.047,-0.024l0.046,-0.025l0.044,-0.027l0.043,-0.028l0.042,-0.029l0.041,-0.031l0.038,-0.032l0.038,-0.034l0.037,-0.035l0.035,-0.036l0.033,-0.037l0.033,-0.039l0.031,-0.04l0.03,-0.041l0.029,-0.042l0.028,-0.044l0.027,-0.044l0.025,-0.046l0.025,-0.047l0.023,-0.048l0.022,-0.049l0.022,-0.05l0.02,-0.051l0.019,-0.052l0.018,-0.053l0.018,-0.054l0.016,-0.055l0.015,-0.055l0.015,-0.057l0.013,-0.058l0.013,-0.058l0.012,-0.059l0.011,-0.06l0.011,-0.061l0.009,-0.061l0.009,-0.063l0.008,-0.063l0.007,-0.063l0.013,-0.13l0.01,-0.132l0.007,-0.134l0.005,-0.136l0.003,-0.139l0.001,-0.14l0,-0.909l-3.502,-5.455l-32.996,0Z" style="fill:#3c4c55;"/><rect x="4" y="37.182" width="40" height="0.909" style="fill:#3c4c55;"/><path d="M42.182,8.545c0,-0.752 -0.611,-1.363 -1.364,-1.363l-33.636,0c-0.753,0 -1.364,0.611 -1.364,1.363l0,20c0,0.753 0.611,1.364 1.364,1.364l33.636,0c0.753,0 1.364,-0.611 1.364,-1.364l0,-20Z" style="fill:#3c4c55;"/><path d="M40.364,9.764c0,-0.422 -0.343,-0.764 -0.764,-0.764l-31.2,0c-0.421,0 -0.764,0.342 -0.764,0.764l0,17.563c0,0.422 0.343,0.764 0.764,0.764l31.2,0c0.421,0 0.764,-0.342 0.764,-0.764l0,-17.563Z" style="fill:#fff;"/><path d="M31.273,37.182l-14.546,0c0,0 0.672,-1.917 1.039,-2.967c0.141,-0.401 0.519,-0.67 0.944,-0.67c2.13,0 8.45,0 10.58,0c0.425,0 0.803,0.269 0.944,0.67c0.367,1.05 1.039,2.967 1.039,2.967Z" style="fill:#199ae2;"/></svg>