<?xml version="1.0" encoding="UTF-8" standalone="no"?><!DOCTYPE svg PUBLIC "-//W3C//DTD SVG 1.1//EN" "http://www.w3.org/Graphics/SVG/1.1/DTD/svg11.dtd"><svg width="100%" height="100%" viewBox="0 0 48 48" version="1.1" xmlns="http://www.w3.org/2000/svg" xmlns:xlink="http://www.w3.org/1999/xlink" xml:space="preserve" style="fill-rule:evenodd;clip-rule:evenodd;stroke-linejoin:round;stroke-miterlimit:1.41421;"><circle cx="24" cy="24" r="18" style="fill:#fff;"/><path d="M24.232,6.001l0.232,0.005l0.231,0.007l0.231,0.01l0.229,0.014l0.229,0.016l0.228,0.018l0.227,0.022l0.227,0.024l0.225,0.028l0.225,0.03l0.224,0.033l0.223,0.035l0.222,0.038l0.221,0.041l0.22,0.044l0.219,0.046l0.218,0.049l0.217,0.052l0.216,0.054l0.215,0.057l0.214,0.059l0.213,0.062l0.212,0.065l0.211,0.067l0.21,0.069l0.208,0.072l0.207,0.075l0.206,0.077l0.205,0.079l0.204,0.082l0.203,0.084l0.201,0.087l0.2,0.089l0.198,0.091l0.198,0.094l0.196,0.096l0.195,0.098l0.193,0.101l0.192,0.103l0.19,0.105l0.19,0.107l0.187,0.11l0.187,0.111l0.185,0.114l0.183,0.116l0.182,0.119l0.18,0.12l0.179,0.122l0.177,0.125l0.176,0.126l0.174,0.129l0.172,0.131l0.171,0.132l0.169,0.135l0.168,0.136l0.166,0.139l0.164,0.141l0.162,0.142l0.161,0.144l0.159,0.147l0.157,0.148l0.156,0.15l0.153,0.152l0.152,0.153l0.15,0.156l0.148,0.157l0.147,0.159l0.144,0.161l0.142,0.162l0.141,0.164l0.139,0.166l0.136,0.168l0.135,0.169l0.132,0.171l0.131,0.172l0.129,0.174l0.126,0.176l0.125,0.177l0.122,0.179l0.12,0.18l0.119,0.182l0.116,0.183l0.114,0.185l0.111,0.187l0.11,0.187l0.107,0.19l0.105,0.19l0.103,0.192l0.101,0.193l0.098,0.195l0.096,0.196l0.094,0.198l0.091,0.198l0.089,0.2l0.087,0.201l0.084,0.203l0.082,0.204l0.079,0.205l0.077,0.206l0.075,0.207l0.072,0.208l0.069,0.21l0.067,0.211l0.065,0.212l0.062,0.213l0.059,0.214l0.057,0.215l0.054,0.216l0.052,0.217l0.049,0.218l0.046,0.219l0.044,0.22l0.041,0.221l0.038,0.222l0.035,0.223l0.033,0.224l0.03,0.225l0.028,0.225l0.024,0.227l0.022,0.227l0.018,0.228l0.016,0.229l0.014,0.229l0.01,0.231l0.007,0.231l0.005,0.232l0.001,0.232l-0.001,0.232l-0.005,0.232l-0.007,0.231l-0.01,0.231l-0.014,0.229l-0.016,0.229l-0.018,0.228l-0.022,0.227l-0.024,0.227l-0.028,0.225l-0.03,0.225l-0.033,0.224l-0.035,0.223l-0.038,0.222l-0.041,0.221l-0.044,0.22l-0.046,0.219l-0.049,0.218l-0.052,0.217l-0.054,0.216l-0.057,0.215l-0.059,0.214l-0.062,0.213l-0.065,0.212l-0.067,0.211l-0.069,0.21l-0.072,0.208l-0.075,0.207l-0.077,0.206l-0.079,0.205l-0.082,0.204l-0.084,0.203l-0.087,0.201l-0.089,0.2l-0.091,0.198l-0.094,0.198l-0.096,0.196l-0.098,0.195l-0.101,0.193l-0.103,0.192l-0.105,0.19l-0.107,0.19l-0.11,0.187l-0.111,0.187l-0.114,0.185l-0.116,0.183l-0.119,0.182l-0.12,0.18l-0.122,0.179l-0.125,0.177l-0.126,0.176l-0.129,0.174l-0.131,0.172l-0.132,0.171l-0.135,0.169l-0.136,0.168l-0.139,0.166l-0.141,0.164l-0.142,0.162l-0.144,0.161l-0.147,0.159l-0.148,0.157l-0.15,0.156l-0.152,0.153l-0.153,0.152l-0.156,0.15l-0.157,0.148l-0.159,0.147l-0.161,0.144l-0.162,0.142l-0.164,0.141l-0.166,0.139l-0.168,0.136l-0.169,0.135l-0.171,0.132l-0.172,0.131l-0.174,0.129l-0.176,0.126l-0.177,0.125l-0.179,0.122l-0.18,0.12l-0.182,0.119l-0.183,0.116l-0.185,0.114l-0.187,0.111l-0.187,0.11l-0.19,0.107l-0.19,0.105l-0.192,0.103l-0.193,0.101l-0.195,0.098l-0.196,0.096l-0.198,0.094l-0.198,0.091l-0.2,0.089l-0.201,0.087l-0.203,0.084l-0.204,0.082l-0.205,0.079l-0.206,0.077l-0.207,0.075l-0.208,0.072l-0.21,0.069l-0.211,0.067l-0.212,0.065l-0.213,0.062l-0.214,0.059l-0.215,0.057l-0.216,0.054l-0.217,0.052l-0.218,0.049l-0.219,0.046l-0.22,0.044l-0.221,0.041l-0.222,0.038l-0.223,0.035l-0.224,0.033l-0.225,0.03l-0.225,0.028l-0.227,0.024l-0.227,0.022l-0.228,0.018l-0.229,0.016l-0.229,0.014l-0.231,0.01l-0.231,0.007l-0.232,0.005l-0.232,0.001l-0.232,-0.001l-0.232,-0.005l-0.231,-0.007l-0.231,-0.01l-0.229,-0.014l-0.229,-0.016l-0.228,-0.018l-0.227,-0.022l-0.227,-0.024l-0.225,-0.028l-0.225,-0.03l-0.224,-0.033l-0.223,-0.035l-0.222,-0.038l-0.221,-0.041l-0.22,-0.044l-0.219,-0.046l-0.218,-0.049l-0.217,-0.052l-0.216,-0.054l-0.215,-0.057l-0.214,-0.059l-0.213,-0.062l-0.212,-0.065l-0.211,-0.067l-0.21,-0.069l-0.208,-0.072l-0.207,-0.075l-0.206,-0.077l-0.205,-0.079l-0.204,-0.082l-0.203,-0.084l-0.201,-0.087l-0.2,-0.089l-0.198,-0.091l-0.198,-0.094l-0.196,-0.096l-0.195,-0.098l-0.193,-0.101l-0.192,-0.103l-0.19,-0.105l-0.19,-0.107l-0.187,-0.11l-0.187,-0.111l-0.185,-0.114l-0.183,-0.116l-0.182,-0.119l-0.18,-0.12l-0.179,-0.122l-0.177,-0.125l-0.176,-0.126l-0.174,-0.129l-0.172,-0.131l-0.171,-0.132l-0.169,-0.135l-0.168,-0.136l-0.166,-0.139l-0.164,-0.141l-0.162,-0.142l-0.161,-0.144l-0.159,-0.147l-0.157,-0.148l-0.156,-0.15l-0.153,-0.152l-0.152,-0.153l-0.15,-0.156l-0.148,-0.157l-0.147,-0.159l-0.144,-0.161l-0.142,-0.162l-0.141,-0.164l-0.139,-0.166l-0.136,-0.168l-0.135,-0.169l-0.132,-0.171l-0.131,-0.172l-0.129,-0.174l-0.126,-0.176l-0.125,-0.177l-0.122,-0.179l-0.12,-0.18l-0.119,-0.182l-0.116,-0.183l-0.114,-0.185l-0.111,-0.187l-0.11,-0.187l-0.107,-0.19l-0.105,-0.19l-0.103,-0.192l-0.101,-0.193l-0.098,-0.195l-0.096,-0.196l-0.094,-0.198l-0.091,-0.198l-0.089,-0.2l-0.087,-0.201l-0.084,-0.203l-0.082,-0.204l-0.079,-0.205l-0.077,-0.206l-0.075,-0.207l-0.072,-0.208l-0.069,-0.21l-0.067,-0.211l-0.065,-0.212l-0.062,-0.213l-0.059,-0.214l-0.057,-0.215l-0.054,-0.216l-0.052,-0.217l-0.049,-0.218l-0.046,-0.219l-0.044,-0.22l-0.041,-0.221l-0.038,-0.222l-0.035,-0.223l-0.033,-0.224l-0.03,-0.225l-0.028,-0.225l-0.024,-0.227l-0.022,-0.227l-0.018,-0.228l-0.016,-0.229l-0.014,-0.229l-0.01,-0.231l-0.007,-0.231l-0.005,-0.232l-0.001,-0.232l0.001,-0.232l0.005,-0.232l0.007,-0.231l0.01,-0.231l0.014,-0.229l0.016,-0.229l0.018,-0.228l0.022,-0.227l0.024,-0.227l0.028,-0.225l0.03,-0.225l0.033,-0.224l0.035,-0.223l0.038,-0.222l0.041,-0.221l0.044,-0.22l0.046,-0.219l0.049,-0.218l0.052,-0.217l0.054,-0.216l0.057,-0.215l0.059,-0.214l0.062,-0.213l0.065,-0.212l0.067,-0.211l0.069,-0.21l0.072,-0.208l0.075,-0.207l0.077,-0.206l0.079,-0.205l0.082,-0.204l0.084,-0.203l0.087,-0.201l0.089,-0.2l0.091,-0.198l0.094,-0.198l0.096,-0.196l0.098,-0.195l0.101,-0.193l0.103,-0.192l0.105,-0.19l0.107,-0.19l0.11,-0.187l0.111,-0.187l0.114,-0.185l0.116,-0.183l0.119,-0.182l0.12,-0.18l0.122,-0.179l0.125,-0.177l0.126,-0.176l0.129,-0.174l0.131,-0.172l0.132,-0.171l0.135,-0.169l0.136,-0.168l0.139,-0.166l0.141,-0.164l0.142,-0.162l0.144,-0.161l0.147,-0.159l0.148,-0.157l0.15,-0.156l0.152,-0.153l0.153,-0.152l0.156,-0.15l0.157,-0.148l0.159,-0.147l0.161,-0.144l0.162,-0.142l0.164,-0.141l0.166,-0.139l0.168,-0.136l0.169,-0.135l0.171,-0.132l0.172,-0.131l0.174,-0.129l0.176,-0.126l0.177,-0.125l0.179,-0.122l0.18,-0.12l0.182,-0.119l0.183,-0.116l0.185,-0.114l0.187,-0.111l0.187,-0.11l0.19,-0.107l0.19,-0.105l0.192,-0.103l0.193,-0.101l0.195,-0.098l0.196,-0.096l0.198,-0.094l0.198,-0.091l0.2,-0.089l0.201,-0.087l0.203,-0.084l0.204,-0.082l0.205,-0.079l0.206,-0.077l0.207,-0.075l0.208,-0.072l0.21,-0.069l0.211,-0.067l0.212,-0.065l0.213,-0.062l0.214,-0.059l0.215,-0.057l0.216,-0.054l0.217,-0.052l0.218,-0.049l0.219,-0.046l0.22,-0.044l0.221,-0.041l0.222,-0.038l0.223,-0.035l0.224,-0.033l0.225,-0.03l0.225,-0.028l0.227,-0.024l0.227,-0.022l0.228,-0.018l0.229,-0.016l0.229,-0.014l0.231,-0.01l0.231,-0.007l0.232,-0.005l0.232,-0.001l0.232,0.001Zm-0.439,2l-0.207,0.004l-0.205,0.007l-0.205,0.009l-0.205,0.012l-0.203,0.014l-0.203,0.017l-0.202,0.019l-0.201,0.022l-0.201,0.024l-0.199,0.026l-0.199,0.03l-0.198,0.031l-0.197,0.034l-0.197,0.037l-0.195,0.038l-0.195,0.041l-0.194,0.044l-0.193,0.046l-0.191,0.048l-0.191,0.05l-0.19,0.053l-0.19,0.055l-0.188,0.057l-0.187,0.06l-0.186,0.062l-0.185,0.064l-0.184,0.066l-0.183,0.068l-0.182,0.071l-0.181,0.072l-0.18,0.075l-0.179,0.077l-0.177,0.079l-0.177,0.081l-0.175,0.084l-0.174,0.085l-0.173,0.087l-0.172,0.09l-0.171,0.091l-0.169,0.093l-0.168,0.096l-0.167,0.097l-0.166,0.1l-0.164,0.101l-0.163,0.103l-0.162,0.105l-0.16,0.107l-0.159,0.109l-0.158,0.111l-0.156,0.112l-0.155,0.114l-0.153,0.117l-0.152,0.118l-0.151,0.119l-0.149,0.122l-0.147,0.123l-0.146,0.125l-0.145,0.127l-0.143,0.128l-0.141,0.131l-0.14,0.131l-0.138,0.134l-0.137,0.135l-0.135,0.137l-0.134,0.138l-0.131,0.14l-0.131,0.141l-0.128,0.143l-0.127,0.145l-0.125,0.146l-0.123,0.147l-0.122,0.149l-0.119,0.151l-0.118,0.152l-0.117,0.153l-0.114,0.155l-0.112,0.156l-0.111,0.158l-0.109,0.159l-0.107,0.16l-0.105,0.162l-0.103,0.163l-0.101,0.164l-0.1,0.166l-0.097,0.167l-0.096,0.168l-0.093,0.169l-0.091,0.171l-0.09,0.172l-0.087,0.173l-0.085,0.174l-0.084,0.175l-0.081,0.177l-0.079,0.177l-0.077,0.179l-0.075,0.18l-0.072,0.181l-0.071,0.182l-0.068,0.183l-0.066,0.184l-0.064,0.185l-0.062,0.186l-0.06,0.187l-0.057,0.188l-0.055,0.19l-0.053,0.19l-0.05,0.191l-0.048,0.191l-0.046,0.193l-0.044,0.194l-0.041,0.195l-0.038,0.195l-0.037,0.197l-0.034,0.197l-0.031,0.198l-0.03,0.199l-0.026,0.199l-0.024,0.201l-0.022,0.201l-0.019,0.202l-0.017,0.203l-0.014,0.203l-0.012,0.205l-0.009,0.205l-0.007,0.205l-0.004,0.207l-0.001,0.207l0.001,0.207l0.004,0.207l0.007,0.205l0.009,0.205l0.012,0.205l0.014,0.203l0.017,0.203l0.019,0.202l0.022,0.201l0.024,0.201l0.026,0.199l0.03,0.199l0.031,0.198l0.034,0.197l0.037,0.197l0.038,0.195l0.041,0.195l0.044,0.194l0.046,0.193l0.048,0.191l0.05,0.191l0.053,0.19l0.055,0.19l0.057,0.188l0.06,0.187l0.062,0.186l0.064,0.185l0.066,0.184l0.068,0.183l0.071,0.182l0.072,0.181l0.075,0.18l0.077,0.179l0.079,0.177l0.081,0.177l0.084,0.175l0.085,0.174l0.087,0.173l0.09,0.172l0.091,0.171l0.093,0.169l0.096,0.168l0.097,0.167l0.1,0.166l0.101,0.164l0.103,0.163l0.105,0.162l0.107,0.16l0.109,0.159l0.111,0.158l0.112,0.156l0.114,0.155l0.117,0.153l0.118,0.152l0.119,0.151l0.122,0.149l0.123,0.147l0.125,0.146l0.127,0.145l0.128,0.143l0.131,0.141l0.131,0.14l0.134,0.139l0.135,0.136l0.136,0.135l0.139,0.134l0.14,0.131l0.141,0.131l0.143,0.128l0.145,0.127l0.146,0.125l0.147,0.123l0.149,0.122l0.151,0.119l0.152,0.118l0.153,0.117l0.155,0.114l0.156,0.112l0.158,0.111l0.159,0.109l0.16,0.107l0.162,0.105l0.163,0.103l0.164,0.101l0.166,0.1l0.167,0.097l0.168,0.096l0.169,0.093l0.171,0.091l0.172,0.09l0.173,0.087l0.174,0.085l0.175,0.084l0.177,0.081l0.177,0.079l0.179,0.077l0.18,0.075l0.181,0.072l0.182,0.071l0.183,0.068l0.184,0.066l0.185,0.064l0.186,0.062l0.187,0.06l0.188,0.057l0.19,0.055l0.19,0.053l0.191,0.05l0.191,0.048l0.193,0.046l0.194,0.044l0.195,0.041l0.195,0.038l0.197,0.037l0.197,0.034l0.198,0.031l0.199,0.03l0.199,0.026l0.201,0.024l0.201,0.022l0.202,0.019l0.203,0.017l0.203,0.014l0.205,0.012l0.205,0.009l0.205,0.007l0.207,0.004l0.207,0.001l0.207,-0.001l0.207,-0.004l0.205,-0.007l0.205,-0.009l0.205,-0.012l0.203,-0.014l0.203,-0.017l0.202,-0.019l0.201,-0.022l0.201,-0.024l0.199,-0.026l0.199,-0.03l0.198,-0.031l0.197,-0.034l0.197,-0.037l0.195,-0.038l0.195,-0.041l0.194,-0.044l0.193,-0.046l0.191,-0.048l0.191,-0.05l0.19,-0.053l0.19,-0.055l0.188,-0.057l0.187,-0.06l0.186,-0.062l0.185,-0.064l0.184,-0.066l0.183,-0.068l0.182,-0.071l0.181,-0.072l0.18,-0.075l0.179,-0.077l0.177,-0.079l0.177,-0.081l0.175,-0.084l0.174,-0.085l0.173,-0.087l0.172,-0.09l0.171,-0.091l0.169,-0.093l0.168,-0.096l0.167,-0.097l0.166,-0.1l0.164,-0.101l0.163,-0.103l0.162,-0.105l0.16,-0.107l0.159,-0.109l0.158,-0.111l0.156,-0.112l0.155,-0.114l0.153,-0.117l0.152,-0.118l0.151,-0.119l0.149,-0.122l0.147,-0.123l0.146,-0.125l0.145,-0.127l0.143,-0.128l0.141,-0.131l0.14,-0.131l0.139,-0.134l0.136,-0.135l0.135,-0.136l0.134,-0.139l0.131,-0.14l0.131,-0.141l0.128,-0.143l0.127,-0.145l0.125,-0.146l0.123,-0.147l0.122,-0.149l0.119,-0.151l0.118,-0.152l0.117,-0.153l0.114,-0.155l0.112,-0.156l0.111,-0.158l0.109,-0.159l0.107,-0.16l0.105,-0.162l0.103,-0.163l0.101,-0.164l0.1,-0.166l0.097,-0.167l0.096,-0.168l0.093,-0.169l0.091,-0.171l0.09,-0.172l0.087,-0.173l0.085,-0.174l0.084,-0.175l0.081,-0.177l0.079,-0.177l0.077,-0.179l0.075,-0.18l0.072,-0.181l0.071,-0.182l0.068,-0.183l0.066,-0.184l0.064,-0.185l0.062,-0.186l0.06,-0.187l0.057,-0.188l0.055,-0.19l0.053,-0.19l0.05,-0.191l0.048,-0.191l0.046,-0.193l0.044,-0.194l0.041,-0.195l0.038,-0.195l0.037,-0.197l0.034,-0.197l0.031,-0.198l0.03,-0.199l0.026,-0.199l0.024,-0.201l0.022,-0.201l0.019,-0.202l0.017,-0.203l0.014,-0.203l0.012,-0.205l0.009,-0.205l0.007,-0.205l0.004,-0.207l0.001,-0.207l-0.001,-0.207l-0.004,-0.207l-0.007,-0.205l-0.009,-0.205l-0.012,-0.205l-0.014,-0.203l-0.017,-0.203l-0.019,-0.202l-0.022,-0.201l-0.024,-0.201l-0.026,-0.199l-0.03,-0.199l-0.031,-0.198l-0.034,-0.197l-0.037,-0.197l-0.038,-0.195l-0.041,-0.195l-0.044,-0.194l-0.046,-0.193l-0.048,-0.191l-0.05,-0.191l-0.053,-0.19l-0.055,-0.19l-0.057,-0.188l-0.06,-0.187l-0.062,-0.186l-0.064,-0.185l-0.066,-0.184l-0.068,-0.183l-0.071,-0.182l-0.072,-0.181l-0.075,-0.18l-0.077,-0.179l-0.079,-0.177l-0.081,-0.177l-0.084,-0.175l-0.085,-0.174l-0.087,-0.173l-0.09,-0.172l-0.091,-0.171l-0.093,-0.169l-0.096,-0.168l-0.097,-0.167l-0.1,-0.166l-0.101,-0.164l-0.103,-0.163l-0.105,-0.162l-0.107,-0.16l-0.109,-0.159l-0.111,-0.158l-0.112,-0.156l-0.114,-0.155l-0.117,-0.153l-0.118,-0.152l-0.119,-0.151l-0.122,-0.149l-0.123,-0.147l-0.125,-0.146l-0.127,-0.145l-0.128,-0.143l-0.131,-0.141l-0.131,-0.14l-0.134,-0.139l-0.135,-0.136l-0.136,-0.135l-0.139,-0.134l-0.14,-0.131l-0.141,-0.131l-0.143,-0.128l-0.145,-0.127l-0.146,-0.125l-0.147,-0.123l-0.149,-0.122l-0.151,-0.119l-0.152,-0.118l-0.153,-0.117l-0.155,-0.114l-0.156,-0.112l-0.158,-0.111l-0.159,-0.109l-0.16,-0.107l-0.162,-0.105l-0.163,-0.103l-0.164,-0.101l-0.166,-0.1l-0.167,-0.097l-0.168,-0.096l-0.169,-0.093l-0.171,-0.091l-0.172,-0.09l-0.173,-0.087l-0.174,-0.085l-0.175,-0.084l-0.177,-0.081l-0.177,-0.079l-0.179,-0.077l-0.18,-0.075l-0.181,-0.072l-0.182,-0.071l-0.183,-0.068l-0.184,-0.066l-0.185,-0.064l-0.186,-0.062l-0.187,-0.06l-0.188,-0.057l-0.19,-0.055l-0.19,-0.053l-0.191,-0.05l-0.191,-0.048l-0.193,-0.046l-0.194,-0.044l-0.195,-0.041l-0.195,-0.038l-0.197,-0.037l-0.197,-0.034l-0.198,-0.031l-0.199,-0.03l-0.199,-0.026l-0.201,-0.024l-0.201,-0.022l-0.202,-0.019l-0.203,-0.017l-0.203,-0.014l-0.205,-0.012l-0.205,-0.009l-0.205,-0.007l-0.207,-0.004l-0.207,-0.001l-0.207,0.001Z" style="fill:#3c4c55;"/><path d="M23,14.886l-2,0l3,-3.686l3,3.686l-2,0l0,3.314l-2,0l0,-3.314Z" style="fill:#199ae2;"/><path d="M27,14.886l-2,0l0,3.314l-2,0l0,-3.314l-2,0l3,-3.686l3,3.686Z" style="fill:#199ae2;"/><path d="M25,33.114l2,0l-3,3.686l-3,-3.686l2,0l0,-3.314l2,0l0,3.314Z" style="fill:#199ae2;"/><path d="M25,33.114l2,0l-3,3.686l-3,-3.686l2,0l0,-3.314l2,0l0,3.314Z" style="fill:#199ae2;"/><path d="M14.91,25l0,2l-3.686,-3l3.686,-3l0,2l3.314,0l0,2l-3.314,0Z" style="fill:#199ae2;"/><path d="M14.91,23l3.314,0l0,2l-3.314,0l0,2l-3.686,-3l3.686,-3l0,2Z" style="fill:#199ae2;"/><path d="M33.09,23l0,-2l3.686,3l-3.686,3l0,-2l-3.314,0l0,-2l3.314,0Z" style="fill:#199ae2;"/><path d="M36.776,24l-3.686,3l0,-2l-3.314,0l0,-2l3.314,0l0,-2l3.686,3Z" style="fill:#199ae2;"/><circle cx="24" cy="24" r="4" style="fill:#fff;"/><path d="M24.103,20.001l0.103,0.004l0.102,0.007l0.101,0.009l0.1,0.011l0.1,0.014l0.099,0.017l0.098,0.018l0.097,0.022l0.096,0.023l0.096,0.026l0.094,0.028l0.093,0.03l0.093,0.033l0.091,0.035l0.09,0.037l0.09,0.039l0.088,0.041l0.086,0.043l0.086,0.045l0.084,0.047l0.083,0.049l0.082,0.052l0.081,0.053l0.079,0.054l0.078,0.057l0.076,0.059l0.075,0.06l0.073,0.062l0.072,0.064l0.07,0.065l0.069,0.067l0.067,0.069l0.065,0.07l0.064,0.072l0.062,0.073l0.06,0.075l0.059,0.076l0.057,0.078l0.054,0.079l0.053,0.081l0.052,0.082l0.049,0.083l0.047,0.084l0.045,0.086l0.043,0.086l0.041,0.088l0.039,0.09l0.037,0.09l0.035,0.091l0.033,0.093l0.03,0.093l0.028,0.094l0.026,0.096l0.023,0.096l0.022,0.097l0.018,0.098l0.017,0.099l0.014,0.1l0.011,0.1l0.009,0.101l0.007,0.102l0.004,0.103l0.001,0.103l-0.001,0.103l-0.004,0.103l-0.007,0.102l-0.009,0.101l-0.011,0.1l-0.014,0.1l-0.017,0.099l-0.018,0.098l-0.022,0.097l-0.023,0.096l-0.026,0.096l-0.028,0.094l-0.03,0.093l-0.033,0.093l-0.035,0.091l-0.037,0.09l-0.039,0.09l-0.041,0.088l-0.043,0.086l-0.045,0.086l-0.047,0.084l-0.049,0.083l-0.052,0.082l-0.053,0.081l-0.054,0.079l-0.057,0.078l-0.059,0.076l-0.06,0.075l-0.062,0.073l-0.064,0.072l-0.065,0.07l-0.067,0.069l-0.069,0.067l-0.07,0.065l-0.072,0.064l-0.073,0.062l-0.075,0.06l-0.076,0.059l-0.078,0.057l-0.079,0.054l-0.081,0.053l-0.082,0.052l-0.083,0.049l-0.084,0.047l-0.086,0.045l-0.086,0.043l-0.088,0.041l-0.09,0.039l-0.09,0.037l-0.091,0.035l-0.093,0.033l-0.093,0.03l-0.094,0.028l-0.096,0.026l-0.096,0.023l-0.097,0.022l-0.098,0.018l-0.099,0.017l-0.1,0.014l-0.1,0.011l-0.101,0.009l-0.102,0.007l-0.103,0.004l-0.103,0.001l-0.103,-0.001l-0.103,-0.004l-0.102,-0.007l-0.101,-0.009l-0.1,-0.011l-0.1,-0.014l-0.099,-0.017l-0.098,-0.018l-0.097,-0.022l-0.096,-0.023l-0.096,-0.026l-0.094,-0.028l-0.093,-0.03l-0.093,-0.033l-0.091,-0.035l-0.09,-0.037l-0.09,-0.039l-0.088,-0.041l-0.086,-0.043l-0.086,-0.045l-0.084,-0.047l-0.083,-0.049l-0.082,-0.052l-0.081,-0.053l-0.079,-0.054l-0.078,-0.057l-0.076,-0.059l-0.075,-0.06l-0.073,-0.062l-0.072,-0.064l-0.07,-0.065l-0.069,-0.067l-0.067,-0.069l-0.065,-0.07l-0.064,-0.072l-0.062,-0.073l-0.06,-0.075l-0.059,-0.076l-0.057,-0.078l-0.054,-0.079l-0.053,-0.081l-0.052,-0.082l-0.049,-0.083l-0.047,-0.084l-0.045,-0.086l-0.043,-0.086l-0.041,-0.088l-0.039,-0.09l-0.037,-0.09l-0.035,-0.091l-0.033,-0.093l-0.03,-0.093l-0.028,-0.094l-0.026,-0.096l-0.023,-0.096l-0.022,-0.097l-0.018,-0.098l-0.017,-0.099l-0.014,-0.1l-0.011,-0.1l-0.009,-0.101l-0.007,-0.102l-0.004,-0.103l-0.001,-0.103l0.001,-0.103l0.004,-0.103l0.007,-0.102l0.009,-0.101l0.011,-0.1l0.014,-0.1l0.017,-0.099l0.018,-0.098l0.022,-0.097l0.023,-0.096l0.026,-0.096l0.028,-0.094l0.03,-0.093l0.033,-0.093l0.035,-0.091l0.037,-0.09l0.039,-0.09l0.041,-0.088l0.043,-0.086l0.045,-0.086l0.047,-0.084l0.049,-0.083l0.052,-0.082l0.053,-0.081l0.054,-0.079l0.057,-0.078l0.059,-0.076l0.06,-0.075l0.062,-0.073l0.064,-0.072l0.065,-0.07l0.067,-0.069l0.069,-0.067l0.07,-0.065l0.072,-0.064l0.073,-0.062l0.075,-0.06l0.076,-0.059l0.078,-0.057l0.079,-0.054l0.081,-0.053l0.082,-0.052l0.083,-0.049l0.084,-0.047l0.086,-0.045l0.086,-0.043l0.088,-0.041l0.09,-0.039l0.09,-0.037l0.091,-0.035l0.093,-0.033l0.093,-0.03l0.094,-0.028l0.096,-0.026l0.096,-0.023l0.097,-0.022l0.098,-0.018l0.099,-0.017l0.1,-0.014l0.1,-0.011l0.101,-0.009l0.102,-0.007l0.103,-0.004l0.103,-0.001l0.103,0.001Zm-0.155,2l-0.052,0.002l-0.052,0.003l-0.05,0.005l-0.051,0.005l-0.049,0.007l-0.05,0.008l-0.048,0.01l-0.049,0.01l-0.047,0.012l-0.048,0.013l-0.046,0.014l-0.047,0.015l-0.046,0.016l-0.045,0.017l-0.045,0.019l-0.044,0.019l-0.044,0.02l-0.043,0.022l-0.043,0.022l-0.042,0.024l-0.042,0.025l-0.041,0.025l-0.04,0.027l-0.04,0.027l-0.039,0.029l-0.038,0.029l-0.038,0.03l-0.036,0.032l-0.037,0.032l-0.035,0.033l-0.035,0.033l-0.033,0.035l-0.033,0.035l-0.032,0.037l-0.032,0.036l-0.03,0.038l-0.029,0.038l-0.029,0.039l-0.027,0.04l-0.027,0.04l-0.025,0.041l-0.025,0.042l-0.024,0.042l-0.022,0.043l-0.022,0.043l-0.02,0.044l-0.019,0.044l-0.019,0.045l-0.017,0.045l-0.016,0.046l-0.015,0.047l-0.014,0.046l-0.013,0.048l-0.012,0.047l-0.01,0.049l-0.01,0.048l-0.008,0.05l-0.007,0.049l-0.005,0.051l-0.005,0.05l-0.003,0.052l-0.002,0.052l-0.001,0.052l0.001,0.052l0.002,0.052l0.003,0.052l0.005,0.05l0.005,0.051l0.007,0.049l0.008,0.05l0.01,0.048l0.01,0.049l0.012,0.047l0.013,0.048l0.014,0.046l0.015,0.047l0.016,0.046l0.017,0.045l0.019,0.045l0.019,0.044l0.02,0.044l0.022,0.043l0.022,0.043l0.024,0.042l0.025,0.042l0.025,0.041l0.027,0.04l0.027,0.04l0.029,0.039l0.029,0.038l0.03,0.038l0.032,0.036l0.032,0.037l0.033,0.035l0.033,0.035l0.035,0.033l0.035,0.033l0.037,0.032l0.036,0.032l0.038,0.03l0.038,0.029l0.039,0.029l0.04,0.027l0.041,0.027l0.04,0.025l0.042,0.025l0.042,0.024l0.043,0.022l0.043,0.022l0.044,0.02l0.044,0.019l0.045,0.019l0.045,0.017l0.046,0.016l0.047,0.015l0.046,0.014l0.048,0.013l0.047,0.012l0.049,0.01l0.048,0.01l0.05,0.008l0.049,0.007l0.051,0.005l0.05,0.005l0.052,0.003l0.052,0.002l0.052,0.001l0.052,-0.001l0.052,-0.002l0.052,-0.003l0.05,-0.005l0.051,-0.005l0.049,-0.007l0.05,-0.008l0.048,-0.01l0.049,-0.01l0.047,-0.012l0.048,-0.013l0.046,-0.014l0.047,-0.015l0.046,-0.016l0.045,-0.017l0.045,-0.019l0.044,-0.019l0.044,-0.02l0.043,-0.022l0.043,-0.022l0.042,-0.024l0.042,-0.025l0.04,-0.025l0.041,-0.027l0.04,-0.027l0.039,-0.029l0.038,-0.029l0.038,-0.03l0.036,-0.032l0.037,-0.032l0.035,-0.033l0.035,-0.033l0.033,-0.035l0.033,-0.035l0.032,-0.037l0.032,-0.036l0.03,-0.038l0.029,-0.038l0.029,-0.039l0.027,-0.04l0.027,-0.041l0.025,-0.04l0.025,-0.042l0.024,-0.042l0.022,-0.043l0.022,-0.043l0.02,-0.044l0.019,-0.044l0.019,-0.045l0.017,-0.045l0.016,-0.046l0.015,-0.047l0.014,-0.046l0.013,-0.048l0.012,-0.047l0.01,-0.049l0.01,-0.048l0.008,-0.05l0.007,-0.049l0.005,-0.051l0.005,-0.05l0.003,-0.052l0.002,-0.052l0.001,-0.052l-0.001,-0.052l-0.002,-0.052l-0.003,-0.052l-0.005,-0.05l-0.005,-0.051l-0.007,-0.049l-0.008,-0.05l-0.01,-0.048l-0.01,-0.049l-0.012,-0.047l-0.013,-0.048l-0.014,-0.046l-0.015,-0.047l-0.016,-0.046l-0.017,-0.045l-0.019,-0.045l-0.019,-0.044l-0.02,-0.044l-0.022,-0.043l-0.022,-0.043l-0.024,-0.042l-0.025,-0.042l-0.025,-0.04l-0.027,-0.041l-0.027,-0.04l-0.029,-0.039l-0.029,-0.038l-0.03,-0.038l-0.032,-0.036l-0.032,-0.037l-0.033,-0.035l-0.033,-0.035l-0.035,-0.033l-0.035,-0.033l-0.037,-0.032l-0.036,-0.032l-0.038,-0.03l-0.038,-0.029l-0.039,-0.029l-0.04,-0.027l-0.04,-0.027l-0.041,-0.025l-0.042,-0.025l-0.042,-0.024l-0.043,-0.022l-0.043,-0.022l-0.044,-0.02l-0.044,-0.019l-0.045,-0.019l-0.045,-0.017l-0.046,-0.016l-0.047,-0.015l-0.046,-0.014l-0.048,-0.013l-0.047,-0.012l-0.049,-0.01l-0.048,-0.01l-0.05,-0.008l-0.049,-0.007l-0.051,-0.005l-0.05,-0.005l-0.052,-0.003l-0.052,-0.002l-0.052,-0.001l-0.052,0.001Z" style="fill:#3c4c55;"/></svg>