<?xml version="1.0" encoding="UTF-8" standalone="no"?><!DOCTYPE svg PUBLIC "-//W3C//DTD SVG 1.1//EN" "http://www.w3.org/Graphics/SVG/1.1/DTD/svg11.dtd"><svg width="100%" height="100%" viewBox="0 0 48 48" version="1.1" xmlns="http://www.w3.org/2000/svg" xmlns:xlink="http://www.w3.org/1999/xlink" xml:space="preserve" style="fill-rule:evenodd;clip-rule:evenodd;stroke-linejoin:round;stroke-miterlimit:1.41421;"><path d="M38,5.8c0,-1.545 -1.255,-2.8 -2.8,-2.8l-22.4,0c-1.545,0 -2.8,1.255 -2.8,2.8l0,36.4c0,1.545 1.255,2.8 2.8,2.8l22.4,0c1.545,0 2.8,-1.255 2.8,-2.8l0,-36.4Z" style="fill:#fff;"/><path d="M35.272,3.001l0.072,0.003l0.071,0.004l0.071,0.006l0.07,0.009l0.07,0.009l0.069,0.012l0.069,0.013l0.068,0.015l0.067,0.016l0.067,0.018l0.066,0.02l0.066,0.021l0.064,0.023l0.064,0.024l0.063,0.026l0.063,0.028l0.061,0.028l0.061,0.031l0.06,0.031l0.059,0.033l0.058,0.035l0.058,0.035l0.056,0.037l0.055,0.039l0.055,0.04l0.053,0.041l0.053,0.042l0.051,0.043l0.05,0.045l0.049,0.046l0.049,0.046l0.046,0.049l0.046,0.049l0.045,0.05l0.043,0.051l0.042,0.053l0.041,0.053l0.04,0.055l0.039,0.055l0.037,0.056l0.035,0.058l0.035,0.058l0.033,0.059l0.031,0.06l0.031,0.061l0.028,0.061l0.028,0.063l0.026,0.063l0.024,0.064l0.023,0.064l0.021,0.066l0.02,0.066l0.018,0.067l0.016,0.067l0.015,0.068l0.013,0.069l0.012,0.069l0.009,0.07l0.009,0.07l0.006,0.071l0.004,0.071l0.003,0.072l0.001,0.072l0,36.4l-0.001,0.072l-0.003,0.072l-0.004,0.071l-0.006,0.071l-0.009,0.07l-0.009,0.07l-0.012,0.069l-0.013,0.069l-0.015,0.068l-0.016,0.067l-0.018,0.067l-0.02,0.066l-0.021,0.066l-0.023,0.064l-0.024,0.064l-0.026,0.063l-0.028,0.063l-0.028,0.061l-0.031,0.061l-0.031,0.06l-0.033,0.059l-0.035,0.058l-0.035,0.058l-0.037,0.056l-0.039,0.055l-0.04,0.055l-0.041,0.053l-0.042,0.053l-0.043,0.051l-0.045,0.05l-0.046,0.049l-0.046,0.049l-0.049,0.046l-0.049,0.046l-0.05,0.045l-0.051,0.043l-0.053,0.042l-0.053,0.041l-0.055,0.04l-0.055,0.039l-0.056,0.037l-0.058,0.035l-0.058,0.035l-0.059,0.033l-0.06,0.031l-0.061,0.031l-0.061,0.028l-0.063,0.028l-0.063,0.026l-0.064,0.024l-0.064,0.023l-0.066,0.021l-0.066,0.02l-0.067,0.018l-0.067,0.016l-0.068,0.015l-0.069,0.013l-0.069,0.012l-0.07,0.009l-0.07,0.009l-0.071,0.006l-0.071,0.004l-0.072,0.003l-0.072,0.001l-22.4,0l-0.072,-0.001l-0.072,-0.003l-0.071,-0.004l-0.071,-0.006l-0.07,-0.009l-0.07,-0.009l-0.069,-0.012l-0.069,-0.013l-0.068,-0.015l-0.067,-0.016l-0.067,-0.018l-0.066,-0.02l-0.066,-0.021l-0.064,-0.023l-0.064,-0.024l-0.063,-0.026l-0.063,-0.028l-0.061,-0.028l-0.061,-0.031l-0.06,-0.031l-0.059,-0.033l-0.058,-0.035l-0.058,-0.035l-0.056,-0.037l-0.055,-0.039l-0.055,-0.04l-0.053,-0.041l-0.053,-0.042l-0.051,-0.043l-0.05,-0.045l-0.049,-0.046l-0.049,-0.046l-0.046,-0.049l-0.046,-0.049l-0.045,-0.05l-0.043,-0.051l-0.042,-0.053l-0.041,-0.053l-0.04,-0.055l-0.039,-0.055l-0.037,-0.056l-0.035,-0.058l-0.035,-0.058l-0.033,-0.059l-0.031,-0.06l-0.031,-0.061l-0.028,-0.061l-0.028,-0.063l-0.026,-0.063l-0.024,-0.064l-0.023,-0.064l-0.021,-0.066l-0.02,-0.066l-0.018,-0.067l-0.016,-0.067l-0.015,-0.068l-0.013,-0.069l-0.012,-0.069l-0.009,-0.07l-0.009,-0.07l-0.006,-0.071l-0.004,-0.071l-0.003,-0.072l-0.001,-0.072l0,-36.4l0.001,-0.072l0.003,-0.072l0.004,-0.071l0.006,-0.071l0.009,-0.07l0.009,-0.07l0.012,-0.069l0.013,-0.069l0.015,-0.068l0.016,-0.067l0.018,-0.067l0.02,-0.066l0.021,-0.066l0.023,-0.064l0.024,-0.064l0.026,-0.063l0.028,-0.063l0.028,-0.061l0.031,-0.061l0.031,-0.06l0.033,-0.059l0.035,-0.058l0.035,-0.058l0.037,-0.056l0.039,-0.055l0.04,-0.055l0.041,-0.053l0.042,-0.053l0.043,-0.051l0.045,-0.05l0.046,-0.049l0.046,-0.049l0.049,-0.046l0.049,-0.046l0.05,-0.045l0.051,-0.043l0.053,-0.042l0.053,-0.041l0.055,-0.04l0.055,-0.039l0.056,-0.037l0.058,-0.035l0.058,-0.035l0.059,-0.033l0.06,-0.031l0.061,-0.031l0.061,-0.028l0.063,-0.028l0.063,-0.026l0.064,-0.024l0.064,-0.023l0.066,-0.021l0.066,-0.02l0.067,-0.018l0.067,-0.016l0.068,-0.015l0.069,-0.013l0.069,-0.012l0.07,-0.009l0.07,-0.009l0.071,-0.006l0.071,-0.004l0.072,-0.003l0.072,-0.001l22.4,0l0.072,0.001Zm-22.459,1.999l-0.035,0l-0.021,0.001l-0.02,0.002l-0.021,0.001l-0.02,0.003l-0.02,0.002l-0.019,0.004l-0.02,0.003l-0.019,0.005l-0.019,0.004l-0.018,0.005l-0.019,0.006l-0.018,0.006l-0.018,0.006l-0.018,0.007l-0.018,0.007l-0.017,0.008l-0.018,0.008l-0.017,0.009l-0.017,0.009l-0.017,0.009l-0.017,0.01l-0.016,0.01l-0.016,0.011l-0.016,0.011l-0.016,0.011l-0.015,0.012l-0.015,0.012l-0.015,0.013l-0.015,0.013l-0.014,0.013l-0.014,0.014l-0.014,0.014l-0.013,0.014l-0.013,0.015l-0.013,0.015l-0.012,0.015l-0.012,0.015l-0.011,0.016l-0.011,0.016l-0.011,0.016l-0.01,0.016l-0.01,0.017l-0.009,0.017l-0.009,0.017l-0.009,0.017l-0.008,0.018l-0.008,0.017l-0.007,0.018l-0.007,0.018l-0.006,0.018l-0.006,0.018l-0.006,0.019l-0.005,0.018l-0.004,0.019l-0.005,0.019l-0.003,0.02l-0.004,0.019l-0.002,0.02l-0.003,0.02l-0.001,0.021l-0.002,0.02l-0.001,0.021l0,0.035l0,36.374l0,0.035l0.001,0.021l0.002,0.02l0.001,0.021l0.003,0.02l0.002,0.02l0.004,0.019l0.003,0.02l0.005,0.019l0.004,0.019l0.005,0.018l0.006,0.019l0.006,0.018l0.006,0.018l0.007,0.018l0.007,0.018l0.008,0.017l0.008,0.018l0.009,0.017l0.018,0.034l0.01,0.017l0.01,0.016l0.011,0.016l0.011,0.016l0.011,0.016l0.012,0.015l0.012,0.015l0.013,0.015l0.013,0.015l0.013,0.014l0.014,0.014l0.014,0.014l0.014,0.013l0.015,0.013l0.015,0.013l0.015,0.012l0.015,0.012l0.016,0.011l0.016,0.011l0.016,0.011l0.016,0.01l0.034,0.019l0.034,0.018l0.018,0.008l0.017,0.008l0.018,0.007l0.018,0.007l0.018,0.006l0.018,0.006l0.019,0.006l0.018,0.005l0.019,0.004l0.019,0.005l0.02,0.003l0.019,0.004l0.02,0.002l0.02,0.003l0.021,0.001l0.02,0.002l0.021,0.001l0.035,0l22.374,0l0.035,0l0.021,-0.001l0.02,-0.002l0.021,-0.001l0.02,-0.003l0.02,-0.002l0.019,-0.004l0.02,-0.003l0.019,-0.005l0.019,-0.004l0.018,-0.005l0.019,-0.006l0.018,-0.006l0.018,-0.006l0.018,-0.007l0.018,-0.007l0.017,-0.008l0.018,-0.008l0.017,-0.009l0.017,-0.009l0.017,-0.009l0.017,-0.01l0.016,-0.01l0.016,-0.011l0.016,-0.011l0.016,-0.011l0.015,-0.012l0.015,-0.012l0.015,-0.013l0.015,-0.013l0.014,-0.013l0.014,-0.014l0.014,-0.014l0.013,-0.014l0.013,-0.015l0.013,-0.015l0.012,-0.015l0.012,-0.015l0.011,-0.016l0.011,-0.016l0.011,-0.016l0.01,-0.017l0.01,-0.016l0.009,-0.017l0.009,-0.017l0.009,-0.017l0.008,-0.018l0.008,-0.017l0.007,-0.018l0.007,-0.018l0.006,-0.018l0.006,-0.018l0.006,-0.019l0.005,-0.018l0.004,-0.019l0.005,-0.019l0.003,-0.02l0.004,-0.019l0.002,-0.02l0.003,-0.02l0.001,-0.021l0.002,-0.02l0.001,-0.021l0,-0.035l0,-36.374l0,-0.035l-0.001,-0.021l-0.002,-0.02l-0.001,-0.021l-0.003,-0.02l-0.002,-0.02l-0.004,-0.019l-0.003,-0.02l-0.005,-0.019l-0.004,-0.019l-0.005,-0.018l-0.006,-0.019l-0.006,-0.018l-0.006,-0.018l-0.007,-0.018l-0.007,-0.018l-0.008,-0.017l-0.008,-0.018l-0.009,-0.017l-0.009,-0.017l-0.009,-0.017l-0.01,-0.016l-0.01,-0.017l-0.011,-0.016l-0.011,-0.016l-0.011,-0.016l-0.012,-0.015l-0.012,-0.015l-0.013,-0.015l-0.013,-0.015l-0.013,-0.014l-0.014,-0.014l-0.014,-0.014l-0.014,-0.013l-0.015,-0.013l-0.015,-0.013l-0.015,-0.012l-0.015,-0.012l-0.016,-0.011l-0.016,-0.011l-0.016,-0.011l-0.016,-0.01l-0.017,-0.01l-0.017,-0.009l-0.017,-0.009l-0.017,-0.009l-0.018,-0.008l-0.017,-0.008l-0.018,-0.007l-0.018,-0.007l-0.018,-0.006l-0.018,-0.006l-0.019,-0.006l-0.018,-0.005l-0.019,-0.004l-0.019,-0.005l-0.02,-0.003l-0.019,-0.004l-0.02,-0.002l-0.02,-0.003l-0.021,-0.001l-0.02,-0.002l-0.021,-0.001l-0.035,0l-22.374,0Z" style="fill:#3c4c55;"/><path d="M33,27.5c0,-0.828 -0.672,-1.5 -1.5,-1.5l-15,0c-0.828,0 -1.5,0.672 -1.5,1.5c0,0.828 0.672,1.5 1.5,1.5l15,0c0.828,0 1.5,-0.672 1.5,-1.5Z" style="fill:#199ae2;"/><path d="M33,32.5c0,-0.828 -0.672,-1.5 -1.5,-1.5l-15,0c-0.828,0 -1.5,0.672 -1.5,1.5c0,0.828 0.672,1.5 1.5,1.5l15,0c0.828,0 1.5,-0.672 1.5,-1.5Z" style="fill:#199ae2;"/><path d="M33,37.5c0,-0.828 -0.672,-1.5 -1.5,-1.5l-15,0c-0.828,0 -1.5,0.672 -1.5,1.5c0,0.828 0.672,1.5 1.5,1.5l15,0c0.828,0 1.5,-0.672 1.5,-1.5Z" style="fill:#199ae2;"/><circle cx="31" cy="20" r="2" style="fill:#199ae2;"/></svg>