<?xml version="1.0" encoding="UTF-8" standalone="no"?><!DOCTYPE svg PUBLIC "-//W3C//DTD SVG 1.1//EN" "http://www.w3.org/Graphics/SVG/1.1/DTD/svg11.dtd"><svg width="100%" height="100%" viewBox="0 0 48 48" version="1.1" xmlns="http://www.w3.org/2000/svg" xmlns:xlink="http://www.w3.org/1999/xlink" xml:space="preserve" style="fill-rule:evenodd;clip-rule:evenodd;stroke-linejoin:round;stroke-miterlimit:1.41421;"><path d="M41,10.4c0,-1.877 -1.523,-3.4 -3.4,-3.4l-27.2,0c-1.877,0 -3.4,1.523 -3.4,3.4l0,27.2c0,1.877 1.523,3.4 3.4,3.4l27.2,0c1.877,0 3.4,-1.523 3.4,-3.4l0,-27.2Z" style="fill:#fff;"/><path d="M18,6l-9,0c-1.656,0 -3,1.344 -3,3l0,7l12,0l0,-10Z" style="fill:#f33d4a;"/><path d="M42,9c0,-1.656 -1.344,-3 -3,-3l-2,0l0,10l5,0l0,-7Z" style="fill:#f33d4a;"/><rect x="6" y="19" width="5" height="10" style="fill:#f33d4a;"/><rect x="14" y="19" width="13" height="10" style="fill:#f33d4a;"/><rect x="21" y="6" width="13" height="10" style="fill:#f33d4a;"/><rect x="21" y="32" width="13" height="10" style="fill:#f33d4a;"/><rect x="30" y="19" width="12" height="10" style="fill:#f33d4a;"/><path d="M18,32l-12,0l0,7c0,1.656 1.344,3 3,3l9,0l0,-10Z" style="fill:#f33d4a;"/><path d="M42,32l-5,0l0,10l2,0c1.656,0 3,-1.344 3,-3l0,-7Z" style="fill:#f33d4a;"/></svg>