<?xml version="1.0" encoding="UTF-8" standalone="no"?><!DOCTYPE svg PUBLIC "-//W3C//DTD SVG 1.1//EN" "http://www.w3.org/Graphics/SVG/1.1/DTD/svg11.dtd"><svg width="100%" height="100%" viewBox="0 0 48 48" version="1.1" xmlns="http://www.w3.org/2000/svg" xmlns:xlink="http://www.w3.org/1999/xlink" xml:space="preserve" style="fill-rule:evenodd;clip-rule:evenodd;stroke-linecap:round;stroke-linejoin:round;stroke-miterlimit:1.5;"><path d="M42,9.6c0,-1.987 -1.613,-3.6 -3.6,-3.6l-28.8,0c-1.987,0 -3.6,1.613 -3.6,3.6l0,28.8c0,1.987 1.613,3.6 3.6,3.6l28.8,0c1.987,0 3.6,-1.613 3.6,-3.6l0,-28.8Z" style="fill:#3c4c55;"/><path d="M40,10.24c0,-1.236 -1.004,-2.24 -2.24,-2.24l-27.52,0c-1.236,0 -2.24,1.004 -2.24,2.24l0,27.52c0,1.236 1.004,2.24 2.24,2.24l27.52,0c1.236,0 2.24,-1.004 2.24,-2.24l0,-27.52Z" style="fill:#fff;"/><path d="M16,13c0,-0.552 -0.448,-1 -1,-1c-0.552,0 -1,0.448 -1,1l0,22c0,0.552 0.448,1 1,1c0.552,0 1,-0.448 1,-1l0,-22Z" style="fill:#199ae2;"/><path d="M25,13c0,-0.552 -0.448,-1 -1,-1c-0.552,0 -1,0.448 -1,1l0,22c0,0.552 0.448,1 1,1c0.552,0 1,-0.448 1,-1l0,-22Z" style="fill:#199ae2;"/><path d="M34,13c0,-0.552 -0.448,-1 -1,-1c-0.552,0 -1,0.448 -1,1l0,22c0,0.552 0.448,1 1,1c0.552,0 1,-0.448 1,-1l0,-22Z" style="fill:#199ae2;"/><circle cx="24" cy="18" r="3" style="fill:#fff;stroke:#3c4c55;stroke-width:2px;"/><circle cx="15" cy="26" r="3" style="fill:#fff;stroke:#3c4c55;stroke-width:2px;"/><circle cx="33" cy="30" r="3" style="fill:#fff;stroke:#3c4c55;stroke-width:2px;"/></svg>