<?xml version="1.0" encoding="UTF-8" standalone="no"?><!DOCTYPE svg PUBLIC "-//W3C//DTD SVG 1.1//EN" "http://www.w3.org/Graphics/SVG/1.1/DTD/svg11.dtd"><svg width="100%" height="100%" viewBox="0 0 48 48" version="1.1" xmlns="http://www.w3.org/2000/svg" xmlns:xlink="http://www.w3.org/1999/xlink" xml:space="preserve" style="fill-rule:evenodd;clip-rule:evenodd;stroke-linejoin:round;stroke-miterlimit:1.41421;"><path d="M42,9.6c0,-1.987 -1.613,-3.6 -3.6,-3.6l-28.8,0c-1.987,0 -3.6,1.613 -3.6,3.6l0,28.8c0,1.987 1.613,3.6 3.6,3.6l28.8,0c1.987,0 3.6,-1.613 3.6,-3.6l0,-28.8Z" style="fill:#3c4c55;"/><path d="M40,10.24c0,-1.236 -1.004,-2.24 -2.24,-2.24l-27.52,0c-1.236,0 -2.24,1.004 -2.24,2.24l0,27.52c0,1.236 1.004,2.24 2.24,2.24l27.52,0c1.236,0 2.24,-1.004 2.24,-2.24l0,-27.52Z" style="fill:#fff;"/><path d="M14.925,34.724l-1.649,-1.649l3.304,-3.305l-0.825,-0.825l4.002,-0.702l-0.702,4.002l-0.825,-0.825l-3.305,3.304Z" style="fill:#199ae2;"/><path d="M19.055,32.245l-0.825,-0.825l-3.305,3.304l-1.649,-1.649l3.304,-3.305l-0.825,-0.825l4.002,-0.702l-0.702,4.002Z" style="fill:#199ae2;"/><path d="M34.724,33.075l-1.649,1.649l-3.305,-3.304l-0.825,0.825l-0.702,-4.002l4.002,0.702l-0.825,0.825l3.304,3.305Z" style="fill:#199ae2;"/><path d="M32.245,28.945l-0.825,0.825l3.304,3.305l-1.649,1.649l-3.305,-3.304l-0.825,0.825l-0.702,-4.002l4.002,0.702Z" style="fill:#199ae2;"/><path d="M33.075,13.276l1.649,1.649l-3.304,3.305l0.825,0.825l-4.002,0.702l0.702,-4.002l0.825,0.825l3.305,-3.304Z" style="fill:#199ae2;"/><path d="M34.724,14.925l-3.304,3.305l0.825,0.825l-4.002,0.702l0.702,-4.002l0.825,0.825l3.305,-3.304l1.649,1.649Z" style="fill:#199ae2;"/><path d="M13.276,14.925l1.649,-1.649l3.305,3.304l0.825,-0.825l0.702,4.002l-4.002,-0.702l0.825,-0.825l-3.304,-3.305Z" style="fill:#199ae2;"/><path d="M18.23,16.58l0.825,-0.825l0.702,4.002l-4.002,-0.702l0.825,-0.825l-3.304,-3.305l1.649,-1.649l3.305,3.304Z" style="fill:#199ae2;"/><circle cx="24" cy="24" r="4.667" style="fill:#fff;"/><path d="M24.06,19.334l0.06,0.001l0.06,0.002l0.06,0.002l0.06,0.004l0.059,0.004l0.059,0.005l0.059,0.005l0.117,0.014l0.116,0.016l0.116,0.019l0.114,0.022l0.113,0.025l0.113,0.027l0.111,0.03l0.11,0.033l0.109,0.036l0.108,0.038l0.106,0.04l0.106,0.043l0.104,0.046l0.102,0.048l0.102,0.05l0.1,0.053l0.098,0.055l0.097,0.057l0.096,0.06l0.093,0.062l0.093,0.064l0.09,0.066l0.089,0.068l0.088,0.071l0.085,0.072l0.084,0.074l0.082,0.077l0.08,0.078l0.078,0.08l0.077,0.082l0.074,0.084l0.072,0.085l0.071,0.088l0.068,0.089l0.066,0.09l0.064,0.093l0.062,0.093l0.06,0.096l0.057,0.097l0.055,0.098l0.053,0.1l0.05,0.102l0.048,0.102l0.046,0.104l0.043,0.106l0.04,0.106l0.038,0.108l0.036,0.109l0.033,0.11l0.03,0.111l0.027,0.113l0.025,0.113l0.022,0.114l0.019,0.116l0.016,0.116l0.014,0.117l0.005,0.059l0.005,0.059l0.004,0.059l0.004,0.06l0.002,0.06l0.002,0.06l0.001,0.06l0.001,0.06l-0.001,0.06l-0.001,0.06l-0.002,0.06l-0.002,0.06l-0.004,0.06l-0.004,0.059l-0.005,0.059l-0.005,0.059l-0.014,0.117l-0.016,0.116l-0.019,0.116l-0.022,0.114l-0.025,0.113l-0.027,0.113l-0.03,0.111l-0.033,0.11l-0.036,0.109l-0.038,0.108l-0.04,0.106l-0.043,0.106l-0.046,0.104l-0.048,0.102l-0.05,0.102l-0.053,0.1l-0.055,0.098l-0.057,0.097l-0.06,0.096l-0.062,0.093l-0.064,0.093l-0.066,0.09l-0.068,0.089l-0.071,0.088l-0.072,0.085l-0.074,0.084l-0.077,0.082l-0.078,0.08l-0.08,0.078l-0.082,0.077l-0.084,0.074l-0.085,0.072l-0.088,0.071l-0.089,0.068l-0.09,0.066l-0.093,0.064l-0.093,0.062l-0.096,0.06l-0.097,0.057l-0.098,0.055l-0.1,0.053l-0.102,0.05l-0.102,0.048l-0.104,0.046l-0.106,0.043l-0.106,0.04l-0.108,0.038l-0.109,0.036l-0.11,0.033l-0.111,0.03l-0.113,0.027l-0.113,0.025l-0.114,0.022l-0.116,0.019l-0.116,0.016l-0.117,0.014l-0.059,0.005l-0.059,0.005l-0.059,0.004l-0.06,0.004l-0.06,0.002l-0.06,0.002l-0.06,0.001l-0.06,0.001l-0.06,-0.001l-0.06,-0.001l-0.06,-0.002l-0.06,-0.002l-0.06,-0.004l-0.059,-0.004l-0.059,-0.005l-0.059,-0.005l-0.117,-0.014l-0.116,-0.016l-0.116,-0.019l-0.114,-0.022l-0.113,-0.025l-0.113,-0.027l-0.111,-0.03l-0.11,-0.033l-0.109,-0.036l-0.108,-0.038l-0.106,-0.04l-0.106,-0.043l-0.104,-0.046l-0.102,-0.048l-0.102,-0.05l-0.1,-0.053l-0.098,-0.055l-0.097,-0.057l-0.096,-0.06l-0.093,-0.062l-0.093,-0.064l-0.09,-0.066l-0.089,-0.068l-0.088,-0.071l-0.085,-0.072l-0.084,-0.074l-0.082,-0.077l-0.08,-0.078l-0.078,-0.08l-0.077,-0.082l-0.074,-0.084l-0.072,-0.085l-0.071,-0.088l-0.068,-0.089l-0.066,-0.09l-0.064,-0.093l-0.062,-0.093l-0.06,-0.096l-0.057,-0.097l-0.055,-0.098l-0.053,-0.1l-0.05,-0.102l-0.048,-0.102l-0.046,-0.104l-0.043,-0.106l-0.04,-0.106l-0.038,-0.108l-0.036,-0.109l-0.033,-0.11l-0.03,-0.111l-0.027,-0.113l-0.025,-0.113l-0.022,-0.114l-0.019,-0.116l-0.016,-0.116l-0.014,-0.117l-0.005,-0.059l-0.005,-0.059l-0.004,-0.059l-0.004,-0.06l-0.002,-0.06l-0.002,-0.06l-0.001,-0.06l-0.001,-0.06l0.001,-0.06l0.001,-0.06l0.002,-0.06l0.002,-0.06l0.004,-0.06l0.004,-0.059l0.005,-0.059l0.005,-0.059l0.014,-0.117l0.016,-0.116l0.019,-0.116l0.022,-0.114l0.025,-0.113l0.027,-0.113l0.03,-0.111l0.033,-0.11l0.036,-0.109l0.038,-0.108l0.04,-0.106l0.043,-0.106l0.046,-0.104l0.048,-0.102l0.05,-0.102l0.053,-0.1l0.055,-0.098l0.057,-0.097l0.06,-0.096l0.062,-0.093l0.064,-0.093l0.066,-0.09l0.068,-0.089l0.071,-0.088l0.072,-0.085l0.074,-0.084l0.077,-0.082l0.078,-0.08l0.08,-0.078l0.082,-0.077l0.084,-0.074l0.085,-0.072l0.088,-0.071l0.089,-0.068l0.09,-0.066l0.093,-0.064l0.093,-0.062l0.096,-0.06l0.097,-0.057l0.098,-0.055l0.1,-0.053l0.102,-0.05l0.102,-0.048l0.104,-0.046l0.106,-0.043l0.106,-0.04l0.108,-0.038l0.109,-0.036l0.11,-0.033l0.111,-0.03l0.113,-0.027l0.113,-0.025l0.114,-0.022l0.116,-0.019l0.116,-0.016l0.117,-0.014l0.059,-0.005l0.059,-0.005l0.059,-0.004l0.06,-0.004l0.06,-0.002l0.06,-0.002l0.06,-0.001l0.06,-0.001l0.06,0.001Zm-0.095,2l-0.035,0l-0.034,0.001l-0.035,0.002l-0.034,0.002l-0.034,0.002l-0.034,0.003l-0.027,0.003l-0.074,0.008l-0.066,0.009l-0.066,0.011l-0.065,0.013l-0.064,0.014l-0.064,0.015l-0.063,0.017l-0.063,0.019l-0.061,0.02l-0.062,0.022l-0.06,0.023l-0.06,0.024l-0.059,0.026l-0.059,0.027l-0.058,0.029l-0.057,0.03l-0.056,0.032l-0.055,0.032l-0.055,0.035l-0.053,0.035l-0.053,0.037l-0.052,0.038l-0.051,0.039l-0.05,0.04l-0.05,0.042l-0.048,0.042l-0.047,0.044l-0.046,0.045l-0.045,0.046l-0.044,0.047l-0.042,0.048l-0.042,0.05l-0.04,0.05l-0.039,0.051l-0.038,0.052l-0.037,0.053l-0.035,0.053l-0.035,0.055l-0.032,0.055l-0.032,0.056l-0.03,0.057l-0.029,0.058l-0.027,0.059l-0.026,0.059l-0.024,0.06l-0.023,0.06l-0.022,0.062l-0.02,0.061l-0.019,0.063l-0.017,0.063l-0.015,0.064l-0.014,0.064l-0.013,0.065l-0.011,0.066l-0.009,0.066l-0.008,0.074l-0.003,0.027l-0.003,0.034l-0.002,0.034l-0.002,0.034l-0.002,0.035l-0.001,0.034l0,0.035l-0.001,0.035l0.001,0.035l0,0.035l0.001,0.034l0.002,0.035l0.002,0.034l0.002,0.034l0.003,0.034l0.003,0.027l0.008,0.074l0.009,0.066l0.011,0.066l0.013,0.065l0.014,0.064l0.015,0.064l0.017,0.063l0.019,0.063l0.02,0.061l0.022,0.062l0.023,0.06l0.024,0.06l0.026,0.059l0.027,0.059l0.029,0.058l0.03,0.057l0.032,0.056l0.032,0.055l0.035,0.055l0.035,0.053l0.037,0.053l0.038,0.052l0.039,0.051l0.04,0.05l0.042,0.05l0.042,0.048l0.044,0.047l0.045,0.046l0.046,0.045l0.047,0.044l0.048,0.042l0.05,0.042l0.05,0.04l0.051,0.039l0.052,0.038l0.053,0.037l0.053,0.035l0.055,0.035l0.055,0.032l0.056,0.032l0.057,0.03l0.058,0.029l0.059,0.027l0.059,0.026l0.06,0.024l0.06,0.023l0.062,0.022l0.061,0.02l0.063,0.019l0.063,0.017l0.064,0.015l0.064,0.014l0.065,0.013l0.066,0.011l0.066,0.009l0.074,0.008l0.027,0.003l0.034,0.003l0.034,0.002l0.034,0.002l0.035,0.002l0.034,0.001l0.035,0l0.035,0.001l0.035,-0.001l0.035,0l0.034,-0.001l0.035,-0.002l0.034,-0.002l0.034,-0.002l0.034,-0.003l0.027,-0.003l0.074,-0.008l0.066,-0.009l0.066,-0.011l0.065,-0.013l0.064,-0.014l0.064,-0.015l0.063,-0.017l0.063,-0.019l0.061,-0.02l0.062,-0.022l0.06,-0.023l0.06,-0.024l0.059,-0.026l0.059,-0.027l0.058,-0.029l0.057,-0.03l0.056,-0.032l0.055,-0.033l0.055,-0.034l0.053,-0.035l0.053,-0.037l0.052,-0.038l0.051,-0.039l0.05,-0.04l0.05,-0.042l0.048,-0.042l0.047,-0.044l0.046,-0.045l0.045,-0.046l0.044,-0.047l0.042,-0.048l0.042,-0.05l0.04,-0.05l0.039,-0.051l0.038,-0.052l0.037,-0.053l0.035,-0.053l0.034,-0.055l0.033,-0.055l0.032,-0.056l0.03,-0.057l0.029,-0.058l0.027,-0.059l0.026,-0.059l0.024,-0.06l0.023,-0.06l0.022,-0.062l0.02,-0.061l0.019,-0.063l0.017,-0.063l0.015,-0.064l0.014,-0.064l0.013,-0.065l0.011,-0.066l0.009,-0.066l0.008,-0.074l0.003,-0.027l0.003,-0.034l0.002,-0.034l0.002,-0.034l0.002,-0.035l0.001,-0.034l0,-0.035l0.001,-0.035l-0.001,-0.035l0,-0.035l-0.001,-0.034l-0.002,-0.035l-0.002,-0.034l-0.002,-0.034l-0.003,-0.034l-0.003,-0.027l-0.008,-0.074l-0.009,-0.066l-0.011,-0.066l-0.013,-0.065l-0.014,-0.064l-0.015,-0.064l-0.017,-0.063l-0.019,-0.063l-0.02,-0.061l-0.022,-0.062l-0.023,-0.06l-0.024,-0.06l-0.026,-0.059l-0.027,-0.059l-0.029,-0.058l-0.03,-0.057l-0.032,-0.056l-0.032,-0.055l-0.035,-0.055l-0.035,-0.053l-0.037,-0.053l-0.038,-0.052l-0.039,-0.051l-0.04,-0.05l-0.042,-0.05l-0.042,-0.048l-0.044,-0.047l-0.045,-0.046l-0.046,-0.045l-0.047,-0.044l-0.048,-0.042l-0.05,-0.042l-0.05,-0.04l-0.051,-0.039l-0.052,-0.038l-0.053,-0.037l-0.053,-0.035l-0.055,-0.035l-0.055,-0.032l-0.056,-0.032l-0.057,-0.03l-0.058,-0.029l-0.059,-0.027l-0.059,-0.026l-0.06,-0.024l-0.06,-0.023l-0.062,-0.022l-0.061,-0.02l-0.063,-0.019l-0.063,-0.017l-0.064,-0.015l-0.064,-0.014l-0.065,-0.013l-0.066,-0.011l-0.066,-0.009l-0.074,-0.008l-0.027,-0.003l-0.034,-0.003l-0.034,-0.002l-0.034,-0.002l-0.035,-0.002l-0.034,-0.001l-0.035,0l-0.035,-0.001l-0.035,0.001Z" style="fill:#3c4c55;"/></svg>